<svg id="svg" version="1.1" width="400" height="400" viewBox="0 0 400 400" xmlns="http://www.w3.org/2000/svg" xmlns:xlink="http://www.w3.org/1999/xlink"><g id="svgg"><path id="path0" d="M193.200 42.743 C 193.200 42.931,191.908 43.205,190.330 43.352 C 188.751 43.499,187.266 43.774,187.030 43.963 C 186.793 44.153,185.970 44.441,185.200 44.605 C 184.430 44.768,183.445 45.149,183.011 45.451 C 182.577 45.753,181.827 46.000,181.344 46.000 C 180.862 46.000,180.407 46.147,180.333 46.327 C 180.260 46.507,178.985 47.242,177.500 47.960 C 176.015 48.679,174.800 49.412,174.800 49.590 C 174.800 49.768,174.305 50.037,173.700 50.188 C 173.095 50.339,172.060 50.859,171.400 51.345 C 170.740 51.830,169.750 52.445,169.200 52.711 C 168.113 53.236,167.251 53.758,165.400 55.010 C 164.740 55.456,163.525 56.172,162.700 56.601 C 161.875 57.031,161.200 57.507,161.200 57.659 C 161.200 57.812,160.660 58.055,160.000 58.200 C 159.340 58.345,158.800 58.608,158.800 58.785 C 158.800 58.962,158.485 59.217,158.100 59.352 C 157.715 59.487,156.680 60.034,155.800 60.566 C 154.920 61.099,153.623 61.836,152.918 62.204 C 152.214 62.572,151.426 63.127,151.169 63.437 C 150.912 63.747,150.516 64.000,150.289 64.000 C 150.061 64.000,149.298 64.440,148.592 64.979 C 147.887 65.517,146.835 66.076,146.255 66.222 C 145.675 66.368,145.200 66.643,145.200 66.833 C 145.200 67.024,144.390 67.549,143.400 68.000 C 142.410 68.451,141.600 68.981,141.600 69.178 C 141.600 69.375,141.060 69.655,140.400 69.800 C 139.740 69.945,139.200 70.208,139.200 70.385 C 139.200 70.562,138.885 70.812,138.500 70.942 C 137.783 71.182,137.105 71.584,135.000 73.013 C 134.340 73.461,133.350 74.045,132.800 74.311 C 131.617 74.883,130.657 75.475,128.927 76.699 C 128.226 77.195,127.475 77.600,127.257 77.600 C 127.040 77.600,126.340 78.038,125.704 78.574 C 125.067 79.110,124.063 79.669,123.473 79.817 C 122.883 79.966,122.400 80.242,122.400 80.432 C 122.400 80.621,121.455 81.231,120.300 81.787 C 118.258 82.770,116.807 83.593,116.400 84.000 C 116.028 84.372,114.606 85.199,113.601 85.629 C 113.051 85.864,112.299 86.330,111.928 86.665 C 111.270 87.261,110.707 87.594,107.014 89.571 C 106.016 90.105,105.200 90.676,105.200 90.839 C 105.200 91.003,104.660 91.255,104.000 91.400 C 103.340 91.545,102.800 91.800,102.800 91.967 C 102.800 92.134,101.820 92.750,100.623 93.336 C 99.426 93.923,98.333 94.584,98.196 94.807 C 98.058 95.030,97.373 95.476,96.673 95.798 C 95.353 96.405,94.634 96.832,92.600 98.213 C 91.940 98.661,90.950 99.245,90.400 99.511 C 89.339 100.024,88.538 100.507,86.610 101.800 C 85.141 102.785,83.989 103.479,83.200 103.854 C 82.870 104.011,82.456 104.378,82.280 104.670 C 82.104 104.961,81.731 105.200,81.450 105.200 C 81.169 105.200,80.517 105.650,80.000 106.200 C 79.483 106.750,78.882 107.200,78.664 107.200 C 77.879 107.200,69.600 116.293,69.600 117.155 C 69.600 117.400,69.430 117.600,69.222 117.600 C 68.849 117.600,67.862 119.139,67.363 120.500 C 67.222 120.885,66.948 121.200,66.753 121.200 C 66.559 121.200,66.400 121.403,66.400 121.651 C 66.400 122.060,64.804 125.685,63.370 128.532 C 63.057 129.155,62.800 130.010,62.800 130.432 C 62.800 130.855,62.641 131.200,62.446 131.200 C 62.251 131.200,61.964 132.235,61.808 133.500 C 61.651 134.765,61.315 136.053,61.061 136.361 C 60.397 137.170,60.397 262.830,61.061 263.638 C 61.315 263.947,61.651 265.235,61.808 266.500 C 61.964 267.765,62.251 268.800,62.446 268.800 C 62.641 268.800,62.800 269.162,62.800 269.605 C 62.800 270.413,62.893 270.660,64.132 273.132 C 64.500 273.865,64.800 274.656,64.800 274.889 C 64.800 275.524,66.498 278.800,66.828 278.800 C 66.985 278.800,67.237 279.293,67.388 279.896 C 67.540 280.499,67.784 281.084,67.932 281.196 C 68.384 281.540,70.000 283.948,70.004 284.284 C 70.006 284.458,70.724 285.230,71.600 286.000 C 72.476 286.770,73.194 287.573,73.196 287.785 C 73.201 288.302,76.457 291.596,76.983 291.617 C 77.212 291.626,77.842 292.166,78.381 292.817 C 78.921 293.468,79.565 294.000,79.812 294.000 C 80.058 294.000,80.683 294.450,81.200 295.000 C 81.717 295.550,82.369 296.000,82.650 296.000 C 82.931 296.000,83.304 296.225,83.480 296.501 C 83.656 296.776,84.340 297.266,85.000 297.588 C 85.660 297.911,86.830 298.636,87.600 299.200 C 88.370 299.763,89.861 300.668,90.914 301.212 C 93.683 302.642,94.847 303.300,96.202 304.201 C 98.489 305.722,99.003 306.024,99.700 306.258 C 100.085 306.388,100.400 306.631,100.400 306.800 C 100.400 306.969,100.715 307.217,101.100 307.352 C 101.485 307.487,102.520 308.044,103.400 308.589 C 104.280 309.135,105.315 309.696,105.700 309.837 C 106.085 309.978,106.400 310.233,106.400 310.403 C 106.400 310.574,106.875 310.832,107.455 310.978 C 108.035 311.124,109.087 311.683,109.792 312.221 C 110.498 312.760,111.261 313.200,111.489 313.200 C 111.716 313.200,112.112 313.453,112.369 313.763 C 112.626 314.073,113.414 314.628,114.118 314.996 C 114.823 315.364,116.120 316.097,117.000 316.625 C 117.880 317.152,118.870 317.709,119.200 317.863 C 119.530 318.016,119.890 318.245,120.000 318.371 C 120.319 318.737,121.697 319.541,123.051 320.153 C 123.739 320.464,124.418 320.905,124.559 321.134 C 124.700 321.362,125.757 322.027,126.908 322.611 C 129.747 324.052,131.178 324.854,132.602 325.801 C 134.807 327.268,135.392 327.612,136.673 328.202 C 137.373 328.524,138.070 328.989,138.221 329.235 C 138.373 329.481,139.061 329.936,139.749 330.247 C 141.103 330.859,142.481 331.663,142.800 332.029 C 142.910 332.155,143.270 332.384,143.600 332.538 C 143.930 332.691,145.280 333.438,146.600 334.197 C 147.920 334.957,149.573 335.850,150.273 336.183 C 150.973 336.516,151.670 336.989,151.821 337.235 C 151.973 337.481,152.661 337.936,153.349 338.247 C 154.615 338.819,156.034 339.634,156.400 340.000 C 156.739 340.339,158.141 341.187,159.400 341.814 C 160.711 342.467,162.085 343.285,162.400 343.600 C 162.729 343.929,164.090 344.715,166.000 345.677 C 166.990 346.176,168.340 346.948,169.000 347.393 C 170.895 348.670,171.727 349.171,172.800 349.680 C 173.350 349.941,174.070 350.373,174.400 350.641 C 175.572 351.590,181.250 354.400,181.995 354.400 C 182.412 354.400,182.854 354.564,182.978 354.765 C 183.103 354.966,183.922 355.252,184.800 355.400 C 185.678 355.548,186.491 355.824,186.607 356.012 C 186.724 356.200,187.669 356.467,188.709 356.604 C 189.749 356.742,191.026 357.064,191.547 357.320 C 192.835 357.953,207.655 357.978,208.438 357.349 C 208.747 357.102,210.080 356.769,211.400 356.611 C 212.720 356.452,213.980 356.181,214.200 356.008 C 214.420 355.834,215.186 355.567,215.901 355.414 C 217.244 355.127,225.494 351.071,227.480 349.722 C 228.096 349.304,229.050 348.746,229.600 348.483 C 230.682 347.967,231.533 347.453,233.400 346.190 C 234.060 345.744,235.275 345.028,236.100 344.599 C 236.925 344.169,237.600 343.693,237.600 343.541 C 237.600 343.388,238.140 343.145,238.800 343.000 C 239.460 342.855,240.000 342.603,240.000 342.439 C 240.000 342.276,240.810 341.737,241.800 341.243 C 242.790 340.748,243.600 340.196,243.600 340.015 C 243.600 339.835,244.095 339.563,244.700 339.412 C 245.305 339.261,246.373 338.702,247.073 338.169 C 247.774 337.636,248.477 337.200,248.636 337.200 C 248.794 337.200,249.502 336.760,250.208 336.221 C 250.913 335.683,251.965 335.124,252.545 334.978 C 253.125 334.832,253.600 334.565,253.600 334.385 C 253.600 334.204,254.410 333.652,255.400 333.157 C 256.390 332.663,257.200 332.124,257.200 331.961 C 257.200 331.797,257.740 331.545,258.400 331.400 C 259.060 331.255,259.600 331.012,259.600 330.859 C 259.600 330.707,260.275 330.232,261.100 329.804 C 261.925 329.376,263.050 328.689,263.600 328.277 C 264.150 327.865,265.140 327.277,265.800 326.972 C 267.012 326.411,267.613 326.054,269.798 324.601 C 271.277 323.617,272.932 322.688,274.900 321.737 C 275.725 321.338,276.400 320.886,276.400 320.734 C 276.400 320.581,277.210 320.052,278.200 319.557 C 279.190 319.063,280.000 318.524,280.000 318.361 C 280.000 318.197,280.540 317.945,281.200 317.800 C 281.860 317.655,282.400 317.400,282.400 317.233 C 282.400 317.066,283.345 316.447,284.500 315.858 C 286.765 314.702,287.543 314.246,289.400 312.990 C 290.060 312.544,291.275 311.828,292.100 311.399 C 292.925 310.969,293.600 310.493,293.600 310.341 C 293.600 310.188,294.140 309.945,294.800 309.800 C 295.460 309.655,296.000 309.375,296.000 309.178 C 296.000 308.981,296.810 308.451,297.800 308.000 C 298.790 307.549,299.600 307.019,299.600 306.822 C 299.600 306.625,300.140 306.345,300.800 306.200 C 301.460 306.055,302.000 305.792,302.000 305.616 C 302.000 305.440,303.001 304.789,304.224 304.170 C 305.448 303.551,306.540 302.897,306.652 302.716 C 306.763 302.536,307.427 302.124,308.127 301.802 C 309.502 301.169,310.335 300.669,312.200 299.359 C 312.860 298.895,313.850 298.373,314.400 298.200 C 314.950 298.027,315.691 297.551,316.047 297.143 C 316.403 296.734,316.824 296.400,316.984 296.400 C 317.143 296.400,317.686 296.085,318.191 295.700 C 318.695 295.315,319.533 294.730,320.054 294.400 C 322.893 292.600,330.651 284.083,331.440 281.900 C 331.579 281.515,331.820 281.200,331.976 281.200 C 332.131 281.200,332.663 280.390,333.157 279.400 C 333.652 278.410,334.209 277.600,334.396 277.600 C 334.583 277.600,334.858 277.048,335.006 276.373 C 335.154 275.698,335.527 274.663,335.835 274.073 C 336.143 273.483,336.396 272.773,336.398 272.495 C 336.400 271.968,337.215 270.347,337.652 270.000 C 337.790 269.890,338.035 268.810,338.196 267.600 C 338.358 266.390,338.694 265.147,338.945 264.839 C 339.589 264.044,339.599 135.973,338.955 135.161 C 338.710 134.853,338.391 133.827,338.247 132.883 C 338.103 131.938,337.823 130.858,337.626 130.483 C 336.963 129.220,336.000 126.882,336.000 126.532 C 336.000 126.341,335.280 124.839,334.400 123.193 C 333.520 121.547,332.689 119.885,332.553 119.500 C 332.418 119.115,332.148 118.800,331.953 118.800 C 331.759 118.800,331.600 118.558,331.600 118.262 C 331.600 117.966,331.240 117.398,330.800 117.000 C 330.360 116.602,330.000 116.100,330.000 115.885 C 330.000 115.670,329.370 114.900,328.600 114.174 C 327.830 113.448,327.200 112.686,327.200 112.482 C 327.200 112.277,326.255 111.263,325.100 110.227 C 323.945 109.192,322.471 107.863,321.825 107.273 C 320.699 106.245,319.696 105.564,318.400 104.945 C 318.070 104.787,317.710 104.551,317.600 104.420 C 317.409 104.192,316.288 103.402,314.040 101.909 C 313.468 101.529,312.233 100.834,311.295 100.363 C 310.357 99.892,309.490 99.345,309.368 99.147 C 309.245 98.950,308.573 98.524,307.873 98.202 C 306.559 97.597,305.856 97.181,303.800 95.790 C 303.140 95.344,301.925 94.628,301.100 94.199 C 300.275 93.769,299.600 93.293,299.600 93.141 C 299.600 92.988,299.060 92.745,298.400 92.600 C 297.740 92.455,297.200 92.203,297.200 92.039 C 297.200 91.876,296.390 91.337,295.400 90.843 C 294.410 90.348,293.600 89.796,293.600 89.615 C 293.600 89.435,293.105 89.163,292.500 89.012 C 291.895 88.861,290.827 88.302,290.127 87.769 C 289.426 87.236,288.723 86.800,288.564 86.800 C 288.406 86.800,287.698 86.360,286.992 85.821 C 286.287 85.283,285.235 84.724,284.655 84.578 C 284.075 84.432,283.600 84.165,283.600 83.985 C 283.600 83.804,282.790 83.252,281.800 82.757 C 280.810 82.263,280.000 81.724,280.000 81.561 C 280.000 81.397,279.460 81.145,278.800 81.000 C 278.140 80.855,277.600 80.612,277.600 80.459 C 277.600 80.307,276.925 79.832,276.100 79.404 C 275.275 78.976,274.150 78.289,273.600 77.877 C 273.050 77.465,272.060 76.877,271.400 76.572 C 270.188 76.011,269.587 75.654,267.402 74.201 C 265.923 73.217,264.268 72.288,262.300 71.337 C 261.475 70.938,260.800 70.486,260.800 70.334 C 260.800 70.181,259.990 69.652,259.000 69.157 C 258.010 68.663,257.200 68.124,257.200 67.961 C 257.200 67.797,256.660 67.545,256.000 67.400 C 255.340 67.255,254.800 67.000,254.800 66.833 C 254.800 66.666,253.855 66.047,252.700 65.458 C 250.435 64.302,249.657 63.846,247.800 62.590 C 247.140 62.144,245.925 61.428,245.100 60.999 C 244.275 60.569,243.600 60.093,243.600 59.941 C 243.600 59.788,243.060 59.545,242.400 59.400 C 241.740 59.255,241.200 58.975,241.200 58.778 C 241.200 58.581,240.390 58.051,239.400 57.600 C 238.410 57.149,237.600 56.624,237.600 56.433 C 237.600 56.243,237.105 55.963,236.500 55.812 C 235.895 55.661,234.827 55.102,234.127 54.569 C 233.426 54.036,232.734 53.600,232.588 53.600 C 232.443 53.600,231.756 53.195,231.062 52.701 C 229.535 51.613,228.516 51.049,223.600 48.570 C 221.510 47.517,219.708 46.522,219.596 46.359 C 219.484 46.196,218.854 45.934,218.196 45.777 C 217.538 45.619,216.820 45.351,216.600 45.181 C 216.380 45.011,215.523 44.745,214.696 44.590 C 213.868 44.436,213.101 44.164,212.991 43.986 C 212.881 43.808,211.621 43.537,210.190 43.384 C 208.759 43.231,207.491 42.947,207.371 42.753 C 207.090 42.298,193.200 42.288,193.200 42.743 M206.564 46.742 C 206.680 46.930,207.887 47.200,209.247 47.342 C 210.606 47.484,211.917 47.759,212.159 47.954 C 212.402 48.148,213.230 48.441,214.000 48.604 C 214.770 48.767,215.490 49.013,215.600 49.150 C 215.710 49.288,217.105 50.020,218.700 50.777 C 220.295 51.535,221.600 52.300,221.600 52.477 C 221.600 52.655,221.802 52.800,222.049 52.800 C 222.296 52.800,223.833 53.610,225.464 54.600 C 227.094 55.590,228.495 56.400,228.577 56.400 C 228.659 56.400,229.957 57.210,231.463 58.199 C 232.968 59.189,234.425 59.999,234.700 59.999 C 234.975 60.000,235.200 60.160,235.200 60.357 C 235.200 60.553,235.650 60.826,236.200 60.964 C 236.750 61.102,237.200 61.392,237.200 61.608 C 237.200 61.823,237.408 62.000,237.661 62.000 C 237.915 62.000,240.323 63.350,243.013 65.000 C 245.702 66.650,248.105 68.000,248.351 68.000 C 248.598 68.000,248.800 68.168,248.800 68.373 C 248.800 68.578,249.205 68.872,249.700 69.027 C 250.195 69.181,250.690 69.419,250.800 69.554 C 251.125 69.954,252.519 70.794,253.700 71.302 C 254.305 71.562,254.800 71.896,254.800 72.044 C 254.800 72.192,255.250 72.426,255.800 72.564 C 256.350 72.702,256.800 72.992,256.800 73.208 C 256.800 73.423,256.970 73.600,257.179 73.600 C 257.387 73.600,259.797 74.950,262.535 76.600 C 265.273 78.250,267.698 79.600,267.923 79.600 C 268.149 79.600,268.393 79.753,268.467 79.940 C 268.540 80.127,269.680 80.874,271.000 81.600 C 272.320 82.326,273.490 83.031,273.600 83.168 C 273.710 83.305,274.326 83.683,274.969 84.008 C 277.216 85.146,277.600 85.392,277.600 85.695 C 277.600 85.863,277.802 86.000,278.049 86.000 C 278.296 86.000,279.833 86.810,281.464 87.800 C 283.094 88.790,284.587 89.600,284.781 89.600 C 284.975 89.600,285.193 89.744,285.267 89.921 C 285.450 90.362,290.198 93.200,290.752 93.200 C 290.999 93.200,291.200 93.360,291.200 93.557 C 291.200 93.753,291.650 94.026,292.200 94.164 C 292.750 94.302,293.200 94.592,293.200 94.808 C 293.200 95.023,293.410 95.200,293.666 95.200 C 294.090 95.200,299.927 98.647,300.400 99.176 C 300.510 99.299,301.497 99.850,302.593 100.400 C 303.689 100.950,304.827 101.625,305.121 101.900 C 305.416 102.175,305.914 102.400,306.229 102.400 C 306.543 102.400,306.800 102.580,306.800 102.800 C 306.800 103.020,306.972 103.200,307.182 103.200 C 307.392 103.200,308.247 103.668,309.082 104.240 C 309.917 104.812,310.960 105.442,311.400 105.639 C 312.350 106.065,313.719 106.905,314.000 107.234 C 314.110 107.363,314.494 107.633,314.853 107.834 C 316.643 108.838,319.057 111.076,323.200 115.572 C 325.283 117.832,330.000 126.300,330.000 127.777 C 330.000 128.094,330.170 128.458,330.377 128.586 C 330.584 128.714,330.877 129.669,331.027 130.709 C 331.178 131.749,331.503 132.853,331.750 133.161 C 332.438 134.021,332.389 260.171,331.700 260.860 C 331.425 261.135,331.200 261.735,331.200 262.194 C 331.200 264.650,326.620 274.191,323.805 277.600 C 323.035 278.533,317.419 284.129,316.580 284.800 C 315.184 285.917,312.808 287.600,312.629 287.600 C 312.530 287.600,308.614 289.905,303.925 292.722 C 299.236 295.538,295.130 297.967,294.800 298.119 C 294.470 298.271,293.930 298.570,293.600 298.785 C 290.644 300.706,279.584 307.200,279.270 307.200 C 279.048 307.200,278.807 307.344,278.733 307.520 C 278.609 307.819,272.564 311.600,272.210 311.600 C 272.121 311.600,268.606 313.670,264.400 316.200 C 260.194 318.730,256.669 320.800,256.568 320.800 C 256.467 320.800,255.623 321.291,254.692 321.892 C 252.346 323.406,251.496 323.922,250.800 324.258 C 250.470 324.417,247.299 326.314,243.753 328.473 C 240.208 330.633,237.103 332.400,236.853 332.400 C 236.604 332.400,236.400 332.580,236.400 332.800 C 236.400 333.020,236.223 333.200,236.007 333.200 C 235.791 333.200,232.234 335.237,228.103 337.728 C 220.333 342.412,216.692 344.315,213.600 345.311 C 212.610 345.630,211.170 346.101,210.400 346.358 C 206.128 347.785,193.980 347.782,189.600 346.354 C 185.301 344.953,182.563 343.767,179.368 341.926 C 177.406 340.795,175.440 339.669,175.000 339.424 C 174.161 338.958,171.522 337.354,170.185 336.497 C 169.753 336.221,169.130 335.871,168.800 335.720 C 168.470 335.568,165.265 333.679,161.677 331.522 C 158.090 329.365,154.985 327.600,154.777 327.600 C 154.570 327.600,154.400 327.452,154.400 327.271 C 154.400 327.090,153.555 326.520,152.522 326.004 C 151.488 325.488,146.537 322.576,141.517 319.533 C 136.498 316.490,132.315 314.000,132.222 314.000 C 132.128 314.000,127.765 311.434,122.526 308.297 C 117.287 305.160,112.325 302.239,111.500 301.806 C 110.675 301.373,110.000 300.879,110.000 300.709 C 110.000 300.539,109.792 300.400,109.539 300.400 C 109.285 300.400,106.450 298.799,103.239 296.842 C 100.027 294.886,96.500 292.787,95.400 292.179 C 94.300 291.571,92.680 290.612,91.800 290.050 C 90.920 289.487,89.570 288.686,88.800 288.271 C 81.439 284.299,73.514 275.042,70.589 267.000 C 70.190 265.900,69.730 264.820,69.569 264.600 C 69.407 264.380,69.145 263.300,68.987 262.200 C 68.829 261.100,68.497 259.947,68.250 259.639 C 67.602 258.829,67.607 135.161,68.255 134.361 C 68.506 134.053,68.837 132.855,68.993 131.700 C 69.148 130.546,69.438 129.500,69.637 129.377 C 69.837 129.254,70.000 128.838,70.000 128.452 C 70.000 125.015,79.108 112.112,83.509 109.313 C 84.109 108.931,84.744 108.390,84.920 108.110 C 85.096 107.829,85.486 107.600,85.787 107.600 C 86.087 107.600,86.393 107.462,86.467 107.293 C 86.665 106.836,90.596 104.400,91.135 104.400 C 91.391 104.400,91.600 104.220,91.600 104.000 C 91.600 103.780,91.842 103.600,92.139 103.600 C 92.435 103.600,93.093 103.240,93.600 102.800 C 94.107 102.360,94.765 102.000,95.061 102.000 C 95.358 102.000,95.600 101.823,95.600 101.608 C 95.600 101.392,96.050 101.102,96.600 100.964 C 97.150 100.826,97.600 100.572,97.600 100.400 C 97.600 100.228,98.050 99.974,98.600 99.836 C 99.150 99.698,99.600 99.408,99.600 99.192 C 99.600 98.977,99.770 98.800,99.979 98.800 C 100.187 98.800,102.597 97.450,105.335 95.800 C 108.073 94.150,110.513 92.800,110.757 92.800 C 111.000 92.800,111.200 92.623,111.200 92.408 C 111.200 92.192,111.650 91.902,112.200 91.764 C 112.750 91.626,113.200 91.353,113.200 91.157 C 113.200 90.960,113.362 90.800,113.560 90.800 C 113.758 90.800,115.063 90.079,116.460 89.198 C 117.857 88.316,119.270 87.474,119.600 87.327 C 119.930 87.179,120.290 86.955,120.400 86.829 C 120.510 86.703,121.500 86.150,122.600 85.600 C 123.700 85.050,124.690 84.502,124.800 84.383 C 125.270 83.873,133.176 79.200,133.569 79.200 C 133.806 79.200,134.000 79.020,134.000 78.800 C 134.000 78.580,134.257 78.400,134.571 78.400 C 134.886 78.400,135.381 78.173,135.671 77.895 C 135.962 77.618,136.726 77.123,137.369 76.795 C 139.638 75.640,140.000 75.407,140.000 75.105 C 140.000 74.937,140.174 74.800,140.386 74.800 C 140.598 74.800,142.106 73.990,143.736 73.000 C 145.367 72.010,146.904 71.200,147.151 71.200 C 147.398 71.200,147.600 71.032,147.600 70.827 C 147.600 70.622,147.997 70.328,148.481 70.174 C 148.966 70.020,149.609 69.648,149.910 69.347 C 150.211 69.046,150.714 68.800,151.029 68.800 C 151.343 68.800,151.600 68.623,151.600 68.408 C 151.600 68.192,152.050 67.902,152.600 67.764 C 153.150 67.626,153.600 67.374,153.600 67.203 C 153.600 67.033,153.915 66.785,154.300 66.652 C 154.685 66.520,155.630 66.030,156.400 65.564 C 163.849 61.058,166.381 59.600,166.758 59.600 C 167.001 59.600,167.200 59.452,167.200 59.271 C 167.200 59.090,167.965 58.540,168.900 58.049 C 169.835 57.558,171.140 56.809,171.800 56.384 C 172.460 55.959,173.360 55.430,173.800 55.207 C 174.754 54.724,176.121 53.879,176.400 53.600 C 176.510 53.490,177.500 52.950,178.600 52.400 C 179.700 51.850,180.690 51.295,180.800 51.167 C 181.152 50.756,185.383 48.869,186.613 48.574 C 187.266 48.418,187.998 48.135,188.241 47.945 C 188.483 47.755,189.788 47.484,191.141 47.343 C 192.493 47.202,193.600 46.932,193.600 46.743 C 193.600 46.296,206.287 46.294,206.564 46.742 M195.000 53.589 C 192.422 54.015,189.615 54.715,188.600 55.184 C 188.160 55.388,186.810 56.009,185.600 56.565 C 182.829 57.837,181.138 58.802,169.800 65.585 C 164.740 68.612,156.370 73.599,151.200 76.668 C 146.030 79.737,137.750 84.658,132.800 87.604 C 127.850 90.550,123.290 93.239,122.667 93.580 C 121.288 94.335,121.987 93.920,111.793 100.032 C 107.177 102.800,100.147 106.994,96.171 109.353 C 82.478 117.477,77.888 123.402,74.753 137.000 C 73.826 141.021,73.944 253.380,74.880 257.837 C 76.539 265.739,80.124 272.279,85.731 277.631 C 88.244 280.030,89.756 280.999,106.600 291.013 C 112.320 294.413,117.270 297.377,117.600 297.600 C 117.930 297.823,118.470 298.129,118.800 298.281 C 119.391 298.553,136.031 308.434,137.200 309.208 C 137.530 309.426,138.070 309.728,138.400 309.877 C 138.730 310.027,142.330 312.153,146.400 314.602 C 155.488 320.071,171.394 329.527,172.933 330.375 C 173.556 330.719,174.366 331.181,174.733 331.402 C 185.955 338.160,187.056 338.694,192.525 340.034 C 201.834 342.315,210.603 340.427,221.660 333.764 C 224.699 331.932,227.953 330.001,228.893 329.472 C 229.832 328.942,234.526 326.145,239.325 323.255 C 244.124 320.365,248.118 318.000,248.200 318.000 C 248.335 318.000,264.954 308.137,266.400 307.199 C 266.730 306.985,267.540 306.512,268.200 306.148 C 268.860 305.784,273.232 303.171,277.916 300.343 C 282.601 297.514,286.504 295.200,286.591 295.200 C 286.739 295.200,305.504 284.050,306.800 283.192 C 307.130 282.974,307.670 282.678,308.000 282.535 C 314.872 279.563,322.474 269.256,325.064 259.400 C 326.043 255.677,326.225 138.965,325.258 135.400 C 321.983 123.327,316.106 115.837,305.315 109.981 C 304.482 109.529,303.530 108.990,303.200 108.785 C 302.870 108.579,298.640 106.066,293.800 103.200 C 288.960 100.334,284.730 97.810,284.400 97.592 C 284.070 97.374,283.530 97.073,283.200 96.924 C 282.870 96.776,279.270 94.642,275.200 92.183 C 271.130 89.723,266.360 86.869,264.600 85.840 C 262.840 84.810,261.130 83.798,260.800 83.590 C 259.087 82.512,246.736 75.200,246.628 75.200 C 246.558 75.200,239.706 71.144,231.401 66.187 C 223.095 61.230,215.468 56.810,214.450 56.365 C 213.433 55.920,212.240 55.395,211.800 55.198 C 208.546 53.743,199.381 52.864,195.000 53.589 M207.800 60.483 C 211.299 61.516,212.871 62.304,219.960 66.576 C 223.085 68.459,225.715 70.000,225.806 70.000 C 225.896 70.000,229.531 72.137,233.885 74.748 C 238.238 77.360,246.030 82.021,251.200 85.106 C 256.370 88.191,261.230 91.092,262.000 91.554 C 262.770 92.016,263.670 92.520,264.000 92.675 C 264.330 92.830,268.920 95.556,274.200 98.733 C 279.480 101.910,284.610 104.965,285.600 105.523 C 286.590 106.081,290.820 108.595,295.000 111.111 C 299.180 113.627,303.558 116.219,304.730 116.871 C 311.243 120.498,316.773 127.519,318.640 134.534 C 319.420 137.461,319.398 137.477,317.392 135.413 C 315.070 133.024,313.521 132.400,309.913 132.400 C 305.290 132.401,305.649 132.209,276.800 150.091 C 270.750 153.841,261.840 159.340,257.000 162.311 C 252.160 165.282,247.026 168.453,245.591 169.357 C 244.156 170.261,242.626 171.215,242.191 171.479 C 240.942 172.235,225.439 181.802,220.800 184.680 C 210.002 191.377,208.129 192.692,204.997 195.773 C 201.583 199.131,199.528 202.319,198.145 206.400 C 196.939 209.961,196.991 323.374,198.200 326.995 C 198.984 329.344,201.441 332.434,203.400 333.536 C 204.717 334.276,203.383 334.790,200.200 334.770 C 193.719 334.729,190.359 333.569,181.864 328.439 C 179.279 326.877,177.093 325.600,177.007 325.600 C 176.921 325.600,173.014 323.295,168.325 320.478 C 163.636 317.662,159.530 315.230,159.200 315.075 C 158.870 314.920,158.022 314.442,157.315 314.013 C 151.754 310.637,137.468 302.095,136.093 301.324 C 135.153 300.797,131.872 298.851,128.800 297.000 C 125.728 295.149,122.447 293.204,121.507 292.678 C 95.006 277.834,87.483 272.291,83.817 264.911 C 80.126 257.479,80.400 262.917,80.400 196.981 C 80.400 136.793,80.364 138.130,82.127 133.000 C 85.063 124.456,89.679 119.963,103.600 112.100 C 104.370 111.665,108.420 109.250,112.600 106.733 C 116.780 104.216,120.470 102.032,120.800 101.881 C 121.130 101.729,121.670 101.426,122.000 101.208 C 123.006 100.542,139.758 90.577,140.400 90.263 C 140.730 90.101,141.360 89.751,141.800 89.484 C 143.144 88.671,162.061 77.368,171.526 71.723 C 176.436 68.796,180.525 66.400,180.612 66.400 C 180.700 66.400,182.353 65.450,184.286 64.289 C 192.613 59.286,199.803 58.122,207.800 60.483 M237.914 215.900 C 237.977 218.155,238.157 219.997,238.314 219.993 C 238.471 219.989,239.859 219.719,241.398 219.393 C 246.013 218.416,248.152 219.261,247.304 221.726 C 247.063 222.427,246.744 223.630,246.596 224.400 C 245.646 229.341,245.095 229.985,241.800 229.996 C 234.181 230.023,228.185 235.862,229.357 242.112 C 229.726 244.079,231.297 244.810,236.039 245.222 C 243.416 245.863,245.522 246.760,247.721 250.200 L 249.000 252.200 249.000 258.000 C 249.000 266.222,246.752 271.688,240.672 278.253 L 238.400 280.707 238.400 284.780 C 238.400 289.757,238.318 289.917,234.722 291.990 C 231.080 294.090,230.800 293.857,230.800 288.724 C 230.800 284.750,230.959 284.890,227.465 285.800 C 221.545 287.342,219.207 286.152,220.244 282.126 C 222.200 274.538,221.731 275.046,226.791 275.020 C 234.346 274.980,240.125 269.846,240.179 263.128 C 240.215 258.607,239.015 257.806,231.368 257.247 C 227.615 256.973,226.613 256.748,224.838 255.782 C 217.087 251.564,219.005 236.568,228.568 226.616 L 230.800 224.293 230.806 220.046 C 230.813 215.105,230.740 215.270,233.824 213.211 C 237.486 210.767,237.777 210.958,237.914 215.900 M285.917 264.782 C 286.058 268.781,286.070 268.764,281.042 271.766 C 279.039 272.962,273.989 276.024,269.821 278.570 C 265.652 281.117,262.007 283.200,261.721 283.200 C 260.676 283.200,261.021 275.762,262.100 275.013 C 264.924 273.052,285.066 261.230,285.400 261.337 C 285.620 261.407,285.853 262.957,285.917 264.782 " stroke="none" fill="#283838" fill-rule="evenodd"></path><path id="path1" d="M195.400 46.850 C 188.234 47.623,184.046 49.381,171.957 56.693 C 168.303 58.903,164.451 61.193,163.395 61.782 C 160.645 63.318,145.231 72.461,135.400 78.389 C 130.780 81.175,126.730 83.578,126.400 83.730 C 126.070 83.882,125.170 84.385,124.400 84.848 C 123.630 85.310,119.040 88.041,114.200 90.917 C 82.882 109.523,82.115 110.038,77.848 115.335 C 72.079 122.497,69.233 129.328,68.170 138.564 C 67.395 145.297,67.546 253.712,68.336 257.800 C 70.118 267.027,74.058 274.758,80.132 280.949 C 84.184 285.078,83.469 284.614,110.200 300.483 C 120.032 306.320,139.099 317.650,140.400 318.429 C 148.565 323.316,156.860 328.231,157.969 328.837 C 158.756 329.268,160.030 329.997,160.800 330.456 C 161.570 330.916,165.890 333.495,170.400 336.187 C 186.112 345.568,190.506 347.200,200.056 347.200 C 208.499 347.200,214.342 345.365,224.000 339.680 C 228.323 337.135,261.063 317.705,274.000 310.006 C 278.730 307.192,283.474 304.402,284.542 303.808 C 285.610 303.214,288.580 301.459,291.142 299.908 C 293.704 298.357,299.760 294.745,304.600 291.881 C 322.733 281.150,328.575 274.018,331.643 258.861 C 332.705 253.614,332.829 141.199,331.779 135.544 C 329.832 125.059,324.117 115.338,316.417 109.413 C 314.452 107.901,301.065 99.600,300.591 99.600 C 300.501 99.600,296.275 97.080,291.200 94.000 C 286.125 90.920,281.898 88.400,281.806 88.400 C 281.715 88.400,280.840 87.860,279.862 87.200 C 278.884 86.540,277.986 86.000,277.866 86.000 C 277.746 86.000,274.206 83.930,270.000 81.400 C 265.794 78.870,262.254 76.800,262.134 76.800 C 262.014 76.800,261.116 76.260,260.138 75.600 C 259.160 74.940,258.284 74.400,258.191 74.400 C 258.098 74.400,254.615 72.330,250.451 69.800 C 246.287 67.270,242.765 65.200,242.623 65.200 C 242.482 65.200,242.149 65.018,241.883 64.796 C 239.283 62.619,215.592 49.200,214.348 49.200 C 214.025 49.200,213.589 49.048,213.380 48.863 C 212.383 47.980,202.186 46.254,199.200 46.463 C 198.870 46.486,197.160 46.660,195.400 46.850 M207.843 53.610 C 212.410 54.714,215.243 55.995,221.721 59.885 C 224.757 61.708,227.312 63.200,227.397 63.200 C 227.523 63.200,241.305 71.451,246.200 74.456 C 246.860 74.862,247.670 75.320,248.000 75.475 C 248.330 75.630,252.380 78.026,257.000 80.800 C 261.620 83.574,265.670 85.967,266.000 86.119 C 266.330 86.271,266.870 86.573,267.200 86.790 C 268.272 87.495,287.349 98.892,289.107 99.877 C 290.047 100.404,293.336 102.354,296.418 104.211 C 299.500 106.068,303.051 108.155,304.311 108.849 C 316.995 115.838,322.782 123.236,325.946 136.506 C 326.274 137.883,326.400 154.632,326.400 196.906 C 326.399 257.496,326.371 258.683,324.834 262.200 C 324.642 262.640,324.172 263.900,323.790 265.000 C 321.665 271.115,311.044 283.200,307.794 283.200 C 307.671 283.200,295.595 290.337,293.600 291.589 C 293.270 291.796,291.560 292.818,289.800 293.860 C 288.040 294.901,283.220 297.789,279.089 300.277 C 274.958 302.765,271.505 304.800,271.415 304.800 C 271.325 304.800,266.909 307.410,261.600 310.600 C 256.291 313.790,251.880 316.400,251.797 316.400 C 251.713 316.400,248.681 318.200,245.059 320.400 C 241.436 322.600,238.291 324.400,238.070 324.400 C 237.848 324.400,237.607 324.549,237.533 324.731 C 237.411 325.037,234.797 326.647,230.458 329.091 C 229.500 329.631,226.620 331.339,224.058 332.888 C 215.293 338.185,212.655 339.406,207.094 340.742 C 204.827 341.287,195.177 341.354,193.428 340.837 C 192.753 340.637,191.120 340.155,189.800 339.766 C 186.644 338.836,184.000 337.527,178.282 334.060 C 175.687 332.487,173.494 331.200,173.408 331.200 C 173.322 331.200,168.909 328.590,163.600 325.400 C 158.291 322.210,153.876 319.600,153.788 319.600 C 153.639 319.600,137.728 310.081,136.400 309.197 C 136.070 308.978,135.440 308.637,135.000 308.439 C 134.560 308.242,133.517 307.612,132.682 307.040 C 131.847 306.468,131.093 306.000,131.005 306.000 C 130.917 306.000,127.855 304.200,124.200 302.000 C 120.545 299.800,117.485 298.000,117.401 298.000 C 117.316 298.000,112.871 295.363,107.523 292.141 C 95.481 284.884,95.741 285.038,93.800 283.981 C 83.458 278.346,76.715 269.268,74.346 257.788 C 73.502 253.698,73.384 142.589,74.219 137.600 C 75.076 132.478,75.639 130.744,77.987 126.000 C 81.784 118.328,86.867 113.826,100.000 106.504 C 100.770 106.074,105.450 103.298,110.400 100.334 C 122.651 92.998,135.187 85.556,136.400 84.899 C 137.773 84.155,138.863 83.505,147.967 78.000 C 152.333 75.360,156.107 73.200,156.353 73.200 C 156.599 73.200,156.800 73.041,156.800 72.847 C 156.800 72.652,157.115 72.388,157.500 72.258 C 157.885 72.129,158.470 71.841,158.800 71.617 C 159.832 70.919,176.568 60.971,177.200 60.681 C 177.530 60.529,178.070 60.229,178.400 60.014 C 184.161 56.258,188.798 54.268,194.600 53.059 C 197.118 52.535,204.699 52.850,207.843 53.610 M195.000 60.254 C 192.519 60.646,188.574 62.283,185.000 64.403 C 183.900 65.056,182.730 65.717,182.400 65.873 C 182.070 66.029,178.020 68.426,173.400 71.200 C 168.780 73.974,164.730 76.370,164.400 76.525 C 164.070 76.680,163.260 77.139,162.600 77.544 C 158.309 80.181,141.901 90.000,141.786 90.000 C 141.708 90.000,138.710 91.765,135.123 93.922 C 131.535 96.079,128.330 97.968,128.000 98.120 C 127.670 98.271,127.130 98.574,126.800 98.793 C 125.483 99.665,107.666 110.337,105.798 111.372 C 91.223 119.447,86.334 123.832,83.129 131.710 C 80.670 137.750,80.762 134.988,80.910 198.600 C 81.054 260.829,80.925 256.689,82.881 262.011 C 85.157 268.203,90.267 273.669,98.000 278.181 C 100.970 279.915,107.680 283.913,112.912 287.066 C 118.144 290.220,122.497 292.800,122.587 292.800 C 122.739 292.800,139.478 302.734,140.800 303.608 C 141.130 303.826,141.670 304.127,142.000 304.276 C 142.330 304.425,146.266 306.764,150.746 309.473 C 155.226 312.183,158.949 314.400,159.020 314.400 C 159.090 314.400,163.491 317.010,168.800 320.200 C 174.109 323.390,178.522 326.000,178.608 326.000 C 178.694 326.000,180.797 327.219,183.282 328.708 C 190.781 333.204,196.665 334.943,201.668 334.143 L 203.173 333.902 201.901 333.045 C 200.204 331.901,198.577 329.505,197.600 326.710 C 196.504 323.573,196.327 211.609,197.412 207.384 C 199.550 199.056,204.353 194.078,218.622 185.400 C 221.878 183.420,225.185 181.396,225.971 180.903 C 226.757 180.409,227.670 179.882,228.000 179.732 C 228.330 179.581,228.690 179.343,228.800 179.203 C 228.910 179.062,232.662 176.709,237.139 173.974 C 241.615 171.238,245.861 168.640,246.575 168.200 C 247.288 167.760,251.366 165.255,255.636 162.634 C 259.906 160.013,264.174 157.358,265.120 156.734 C 266.066 156.110,266.937 155.600,267.055 155.600 C 267.173 155.600,268.019 155.076,268.935 154.435 C 270.454 153.372,286.445 143.461,288.800 142.123 C 289.350 141.811,290.279 141.250,290.863 140.878 C 307.056 130.560,312.338 129.274,317.181 134.471 C 320.183 137.694,316.125 128.449,312.666 124.185 C 309.888 120.761,306.238 118.031,299.200 114.109 C 297.990 113.435,293.063 110.524,288.251 107.642 C 283.439 104.759,279.439 102.400,279.362 102.400 C 279.232 102.400,263.332 92.867,262.000 91.990 C 261.670 91.773,261.130 91.471,260.800 91.319 C 260.470 91.167,256.364 88.738,251.675 85.922 C 246.986 83.105,243.074 80.800,242.981 80.800 C 242.888 80.800,239.099 78.550,234.560 75.800 C 230.022 73.050,226.226 70.800,226.126 70.800 C 226.026 70.800,225.189 70.305,224.265 69.700 C 221.675 68.002,221.048 67.617,220.400 67.322 C 220.070 67.172,218.270 66.126,216.400 64.999 C 214.530 63.872,211.920 62.535,210.600 62.028 C 209.280 61.521,207.862 60.931,207.448 60.717 C 206.641 60.300,196.985 59.940,195.000 60.254 M234.394 213.424 C 231.241 215.477,231.200 215.566,231.200 220.395 L 231.200 224.638 229.571 226.219 C 219.942 235.565,217.370 251.616,224.897 255.392 C 226.576 256.235,231.604 257.200,234.313 257.200 C 240.360 257.200,242.559 261.922,239.409 268.148 C 236.840 273.224,229.424 277.078,224.925 275.673 C 223.202 275.135,222.199 275.861,221.779 277.951 C 221.663 278.528,221.306 280.032,220.984 281.294 C 220.238 284.223,220.248 285.056,221.033 285.357 C 222.190 285.801,226.054 285.608,228.457 284.985 C 231.577 284.177,231.600 284.205,231.600 288.824 C 231.600 293.319,231.571 293.292,234.494 291.533 C 238.141 289.339,238.000 289.615,238.000 284.670 L 238.000 280.264 240.530 277.632 C 248.317 269.532,251.307 256.822,247.021 250.034 C 245.296 247.300,240.815 245.600,235.336 245.600 C 230.721 245.600,228.800 244.097,228.800 240.489 C 228.800 234.261,235.512 228.890,242.785 229.300 L 244.570 229.400 245.247 227.400 C 247.882 219.607,247.198 218.642,240.113 220.162 L 237.626 220.695 237.513 216.480 C 237.382 211.586,237.316 211.522,234.394 213.424 " stroke="none" fill="#fbfbfb" fill-rule="evenodd"></path><path id="path2" d="M274.000 267.798 C 267.950 271.423,262.595 274.669,262.100 275.013 C 261.021 275.762,260.676 283.200,261.721 283.200 C 262.007 283.200,265.652 281.117,269.821 278.570 C 273.989 276.024,279.039 272.962,281.042 271.766 C 286.070 268.764,286.058 268.781,285.917 264.782 C 285.853 262.957,285.620 261.407,285.400 261.337 C 285.180 261.267,280.050 264.174,274.000 267.798 " stroke="none" fill="#3bb34b" fill-rule="evenodd"></path><path id="path3" d="M198.711 53.093 C 199.651 53.178,201.091 53.177,201.911 53.091 C 202.730 53.005,201.960 52.936,200.200 52.937 C 198.440 52.939,197.770 53.009,198.711 53.093 M191.600 54.000 C 190.776 54.264,190.741 54.326,191.400 54.354 C 191.840 54.373,192.470 54.213,192.800 54.000 C 193.501 53.547,193.014 53.547,191.600 54.000 M207.400 54.000 C 207.840 54.189,208.560 54.338,209.000 54.332 C 209.643 54.323,209.604 54.257,208.800 54.000 C 207.432 53.562,206.381 53.562,207.400 54.000 M187.400 55.414 C 186.395 55.898,186.363 55.953,187.200 55.751 C 187.750 55.619,188.371 55.350,188.580 55.155 C 189.098 54.671,188.814 54.733,187.400 55.414 M199.505 59.483 C 200.002 59.579,200.722 59.575,201.105 59.475 C 201.487 59.375,201.080 59.296,200.200 59.301 C 199.320 59.305,199.007 59.387,199.505 59.483 M194.000 60.000 C 192.656 60.431,194.108 60.431,195.800 60.000 C 196.878 59.726,196.898 59.694,196.000 59.687 C 195.450 59.683,194.550 59.824,194.000 60.000 M204.600 60.000 C 206.292 60.431,207.744 60.431,206.400 60.000 C 205.850 59.824,204.950 59.683,204.400 59.687 C 203.502 59.694,203.522 59.726,204.600 60.000 M209.200 61.133 C 209.530 61.336,210.250 61.624,210.800 61.771 C 211.495 61.957,211.617 61.925,211.200 61.667 C 210.870 61.464,210.150 61.176,209.600 61.029 C 208.905 60.843,208.783 60.875,209.200 61.133 M165.500 67.829 C 164.005 68.640,164.096 68.978,165.600 68.200 C 166.260 67.859,166.800 67.494,166.800 67.390 C 166.800 67.132,166.757 67.147,165.500 67.829 M160.500 78.229 C 159.125 79.009,158.000 79.739,158.000 79.853 C 158.000 80.074,162.348 77.706,162.980 77.140 C 163.684 76.510,163.013 76.805,160.500 78.229 M241.400 79.481 C 241.620 79.708,242.700 80.397,243.800 81.013 C 244.900 81.628,245.620 81.946,245.400 81.719 C 245.180 81.492,244.100 80.803,243.000 80.187 C 241.900 79.572,241.180 79.254,241.400 79.481 M101.097 105.966 C 99.498 106.991,99.203 107.406,100.600 106.666 C 102.276 105.777,103.071 105.208,102.600 105.235 C 102.380 105.248,101.704 105.577,101.097 105.966 M292.600 109.890 C 292.820 110.100,293.720 110.676,294.600 111.170 C 295.480 111.665,295.840 111.770,295.400 111.404 C 294.506 110.661,291.972 109.291,292.600 109.890 M102.297 112.766 C 100.698 113.791,100.403 114.206,101.800 113.466 C 103.476 112.577,104.271 112.008,103.800 112.035 C 103.580 112.048,102.904 112.377,102.297 112.766 M88.487 113.900 C 87.530 114.835,87.514 114.881,88.381 114.206 C 90.088 112.876,90.169 112.800,89.886 112.800 C 89.736 112.800,89.106 113.295,88.487 113.900 M84.386 117.500 L 82.200 119.800 84.500 117.614 C 85.765 116.411,86.800 115.376,86.800 115.314 C 86.800 115.017,86.418 115.363,84.386 117.500 M316.197 118.100 C 317.487 119.585,318.615 120.800,318.705 120.800 C 319.006 120.800,316.485 117.810,315.163 116.600 C 314.442 115.940,314.908 116.615,316.197 118.100 M89.188 121.900 L 86.600 124.600 89.300 122.012 C 90.785 120.588,92.000 119.373,92.000 119.312 C 92.000 119.017,91.593 119.392,89.188 121.900 M311.000 122.000 C 312.083 123.100,313.060 124.000,313.170 124.000 C 313.280 124.000,312.483 123.100,311.400 122.000 C 310.317 120.900,309.340 120.000,309.230 120.000 C 309.120 120.000,309.917 120.900,311.000 122.000 M308.700 132.289 C 309.415 132.378,310.585 132.378,311.300 132.289 C 312.015 132.201,311.430 132.128,310.000 132.128 C 308.570 132.128,307.985 132.201,308.700 132.289 M315.200 133.325 C 315.200 133.424,315.861 134.009,316.668 134.625 C 317.476 135.241,318.011 135.541,317.856 135.291 C 317.540 134.779,315.200 133.047,315.200 133.325 M81.429 134.629 C 81.281 135.215,81.238 135.772,81.332 135.866 C 81.427 135.960,81.624 135.558,81.771 134.971 C 81.919 134.385,81.962 133.828,81.868 133.734 C 81.773 133.640,81.576 134.042,81.429 134.629 M324.856 134.000 C 324.856 134.330,325.011 134.960,325.200 135.400 C 325.417 135.904,325.544 135.978,325.544 135.600 C 325.544 135.270,325.389 134.640,325.200 134.200 C 324.983 133.696,324.856 133.622,324.856 134.000 M74.650 136.050 C 74.317 137.717,74.640 138.040,75.000 136.400 C 75.152 135.709,75.193 135.059,75.091 134.958 C 74.989 134.856,74.791 135.347,74.650 136.050 M318.000 136.151 C 318.000 136.234,318.270 136.526,318.600 136.800 C 319.091 137.208,319.200 137.180,319.200 136.649 C 319.200 136.292,318.930 136.000,318.600 136.000 C 318.270 136.000,318.000 136.068,318.000 136.151 M80.520 140.400 C 80.520 141.610,80.595 142.105,80.687 141.500 C 80.778 140.895,80.778 139.905,80.687 139.300 C 80.595 138.695,80.520 139.190,80.520 140.400 M74.101 141.000 C 74.105 141.880,74.187 142.193,74.283 141.695 C 74.379 141.198,74.375 140.478,74.275 140.095 C 74.175 139.713,74.096 140.120,74.101 141.000 M326.195 197.000 C 326.195 228.460,326.242 241.389,326.300 225.731 C 326.358 210.074,326.358 184.334,326.300 168.531 C 326.242 152.729,326.195 165.540,326.195 197.000 M244.000 170.018 C 243.010 170.660,242.339 171.188,242.508 171.192 C 242.903 171.202,246.000 169.253,246.000 168.995 C 246.000 168.722,246.002 168.721,244.000 170.018 M223.500 182.629 C 222.675 183.170,222.000 183.693,222.000 183.792 C 222.000 184.057,224.763 182.383,225.025 181.960 C 225.336 181.457,225.198 181.517,223.500 182.629 M205.525 194.900 C 203.370 196.980,203.211 197.187,204.961 195.631 C 208.477 192.505,209.005 192.000,208.753 192.000 C 208.629 192.000,207.176 193.305,205.525 194.900 M197.053 210.036 C 196.914 210.731,196.843 236.523,196.896 267.350 L 196.992 323.400 197.196 266.200 C 197.308 234.740,197.379 208.949,197.353 208.886 C 197.327 208.823,197.192 209.341,197.053 210.036 M237.526 215.860 C 237.661 220.339,237.875 220.761,239.626 220.012 C 240.503 219.637,240.471 219.619,239.300 219.830 L 238.000 220.064 238.000 216.055 C 238.000 213.851,237.865 211.963,237.700 211.861 C 237.535 211.758,237.457 213.558,237.526 215.860 M232.095 214.266 C 231.818 214.378,231.403 214.859,231.173 215.335 C 230.816 216.076,230.833 216.114,231.296 215.600 C 231.593 215.270,232.089 214.775,232.398 214.500 C 232.987 213.976,232.929 213.931,232.095 214.266 M246.349 219.606 C 247.150 219.947,247.263 220.212,247.071 221.305 C 246.864 222.492,246.882 222.522,247.299 221.666 C 247.841 220.551,247.311 219.452,246.157 219.300 C 245.621 219.230,245.677 219.319,246.349 219.606 M246.046 225.267 C 246.021 225.634,245.896 226.264,245.770 226.667 C 245.552 227.362,245.563 227.363,245.997 226.687 C 246.248 226.296,246.373 225.666,246.273 225.287 C 246.111 224.668,246.088 224.666,246.046 225.267 M226.551 228.900 C 225.370 230.248,224.680 231.200,224.884 231.200 C 224.984 231.200,225.645 230.480,226.352 229.600 C 227.725 227.892,227.864 227.401,226.551 228.900 M240.307 229.890 C 241.026 229.979,242.106 229.977,242.707 229.886 C 243.308 229.795,242.720 229.722,241.400 229.724 C 240.080 229.726,239.588 229.801,240.307 229.890 M232.861 232.642 C 231.844 233.355,229.600 236.296,229.600 236.916 C 229.600 237.134,230.060 236.612,230.623 235.756 C 231.185 234.900,232.213 233.705,232.908 233.100 C 234.305 231.882,234.281 231.648,232.861 232.642 M229.052 238.500 C 228.720 239.740,228.751 242.103,229.106 242.660 C 229.268 242.913,229.401 241.878,229.402 240.360 C 229.404 237.287,229.393 237.228,229.052 238.500 M221.029 239.029 C 220.881 239.615,220.838 240.172,220.932 240.266 C 221.027 240.360,221.224 239.958,221.371 239.371 C 221.519 238.785,221.562 238.228,221.468 238.134 C 221.373 238.040,221.176 238.442,221.029 239.029 M220.128 246.000 C 220.128 247.430,220.201 248.015,220.289 247.300 C 220.378 246.585,220.378 245.415,220.289 244.700 C 220.201 243.985,220.128 244.570,220.128 246.000 M234.700 245.489 C 235.415 245.578,236.585 245.578,237.300 245.489 C 238.015 245.401,237.430 245.328,236.000 245.328 C 234.570 245.328,233.985 245.401,234.700 245.489 M74.109 253.200 C 74.109 254.190,74.187 254.595,74.282 254.100 C 74.378 253.605,74.378 252.795,74.282 252.300 C 74.187 251.805,74.109 252.210,74.109 253.200 M80.440 253.433 C 80.462 254.515,80.622 255.850,80.797 256.400 C 80.981 256.981,81.025 256.227,80.901 254.600 C 80.651 251.304,80.383 250.627,80.440 253.433 M74.487 256.800 C 74.483 257.350,74.624 258.250,74.800 258.800 C 75.231 260.144,75.231 258.692,74.800 257.000 C 74.526 255.922,74.494 255.902,74.487 256.800 M235.600 257.600 C 236.968 258.038,238.019 258.038,237.000 257.600 C 236.560 257.411,235.840 257.262,235.400 257.268 C 234.757 257.277,234.796 257.343,235.600 257.600 M81.395 259.200 C 81.554 259.970,81.839 260.765,82.028 260.966 C 82.217 261.167,82.179 260.627,81.944 259.766 C 81.396 257.759,81.018 257.369,81.395 259.200 M325.000 259.200 C 324.848 259.891,324.807 260.541,324.909 260.642 C 325.011 260.744,325.209 260.253,325.350 259.550 C 325.491 258.847,325.531 258.198,325.441 258.108 C 325.350 258.017,325.152 258.509,325.000 259.200 M248.446 263.667 C 248.421 264.034,248.296 264.664,248.170 265.067 C 247.952 265.762,247.963 265.763,248.397 265.087 C 248.648 264.696,248.773 264.066,248.673 263.687 C 248.511 263.068,248.488 263.066,248.446 263.667 M76.618 264.900 C 76.768 265.395,77.055 265.976,77.256 266.191 C 77.457 266.406,77.419 266.001,77.172 265.291 C 76.665 263.838,76.197 263.508,76.618 264.900 M322.865 265.817 C 322.195 267.288,322.323 267.602,323.047 266.265 C 323.386 265.640,323.588 265.054,323.496 264.963 C 323.405 264.871,323.121 265.256,322.865 265.817 M85.438 267.924 C 85.857 268.652,86.630 269.642,87.156 270.124 C 87.719 270.640,87.495 270.178,86.612 269.000 C 84.723 266.483,84.479 266.259,85.438 267.924 M237.283 270.400 C 236.559 271.272,235.164 272.456,234.183 273.031 C 232.161 274.216,231.768 274.747,233.624 273.788 C 235.093 273.028,237.888 270.558,238.435 269.534 C 239.025 268.432,238.739 268.647,237.283 270.400 M88.600 271.964 C 89.436 272.929,92.400 275.383,92.400 275.110 C 92.400 275.023,91.365 274.072,90.100 272.997 C 88.835 271.921,88.160 271.456,88.600 271.964 M318.799 272.900 C 318.210 273.704,318.113 273.984,318.545 273.633 C 319.201 273.100,320.193 271.600,319.889 271.600 C 319.813 271.600,319.322 272.185,318.799 272.900 M81.591 273.588 C 82.057 274.241,82.642 274.902,82.891 275.056 C 83.141 275.211,82.841 274.676,82.225 273.868 C 80.888 272.115,80.384 271.892,81.591 273.588 M222.349 275.500 C 221.872 276.109,221.878 276.140,222.400 275.743 C 222.730 275.492,223.360 275.198,223.800 275.089 C 224.560 274.903,224.557 274.890,223.749 274.846 C 223.281 274.821,222.651 275.115,222.349 275.500 M315.000 277.111 C 313.680 278.374,311.970 279.912,311.200 280.529 C 309.996 281.495,310.056 281.478,311.633 280.406 C 313.265 279.297,318.059 274.788,317.586 274.808 C 317.484 274.812,316.320 275.848,315.000 277.111 M225.700 275.487 C 226.305 275.578,227.295 275.578,227.900 275.487 C 228.505 275.395,228.010 275.320,226.800 275.320 C 225.590 275.320,225.095 275.395,225.700 275.487 M239.868 278.731 L 237.965 280.663 238.101 284.031 L 238.237 287.400 238.319 284.014 L 238.400 280.627 240.285 278.714 C 241.322 277.661,242.080 276.800,241.970 276.800 C 241.860 276.800,240.914 277.669,239.868 278.731 M221.000 278.800 C 220.848 279.491,220.807 280.141,220.909 280.242 C 221.011 280.344,221.209 279.853,221.350 279.150 C 221.491 278.447,221.531 277.798,221.441 277.708 C 221.350 277.617,221.152 278.109,221.000 278.800 M76.800 278.125 C 76.800 278.194,77.385 278.779,78.100 279.425 L 79.400 280.600 78.225 279.300 C 77.130 278.088,76.800 277.816,76.800 278.125 M97.400 278.281 C 97.620 278.508,98.700 279.197,99.800 279.813 C 100.900 280.428,101.620 280.746,101.400 280.519 C 101.180 280.292,100.100 279.603,99.000 278.987 C 97.900 278.372,97.180 278.054,97.400 278.281 M321.178 280.300 L 319.800 281.800 321.300 280.422 C 322.125 279.663,322.800 278.988,322.800 278.922 C 322.800 278.616,322.462 278.904,321.178 280.300 M88.669 280.432 C 89.166 281.033,91.600 282.564,91.600 282.276 C 91.600 282.183,90.835 281.602,89.900 280.985 C 88.965 280.368,88.411 280.120,88.669 280.432 M219.883 283.500 C 219.767 284.105,219.798 284.824,219.951 285.099 C 220.105 285.373,220.259 284.878,220.294 283.999 C 220.368 282.144,220.185 281.922,219.883 283.500 M96.000 284.935 C 96.000 285.206,98.874 286.859,99.046 286.687 C 99.126 286.608,98.473 286.139,97.596 285.646 C 96.718 285.152,96.000 284.833,96.000 284.935 M228.800 285.206 C 228.372 285.486,228.569 285.528,229.484 285.353 L 230.769 285.106 230.901 288.853 L 231.034 292.600 231.117 288.700 C 231.205 284.554,230.778 283.909,228.800 285.206 M221.740 286.094 C 222.308 286.457,225.553 286.442,226.485 286.072 C 226.862 285.922,225.845 285.800,224.226 285.800 C 222.606 285.800,221.487 285.932,221.740 286.094 M119.286 291.400 C 120.095 291.950,120.899 292.400,121.072 292.400 C 121.244 292.400,120.723 291.950,119.914 291.400 C 119.105 290.850,118.301 290.400,118.128 290.400 C 117.956 290.400,118.477 290.850,119.286 291.400 M267.900 306.229 C 266.405 307.040,266.496 307.378,268.000 306.600 C 268.660 306.259,269.200 305.894,269.200 305.790 C 269.200 305.532,269.157 305.547,267.900 306.229 M156.000 313.164 C 156.550 313.614,157.180 313.983,157.400 313.985 C 157.828 313.988,157.105 313.434,155.800 312.760 C 155.269 312.485,155.336 312.621,156.000 313.164 M197.829 326.800 C 197.976 327.350,198.264 328.070,198.467 328.400 C 198.725 328.817,198.757 328.695,198.571 328.000 C 198.424 327.450,198.136 326.730,197.933 326.400 C 197.675 325.983,197.643 326.105,197.829 326.800 M200.601 331.534 C 201.260 332.268,202.160 333.055,202.600 333.283 C 203.040 333.511,203.220 333.540,203.000 333.348 C 202.780 333.155,201.880 332.368,201.001 331.599 L 199.402 330.200 200.601 331.534 M176.086 332.600 C 176.895 333.150,177.699 333.600,177.872 333.600 C 178.044 333.600,177.523 333.150,176.714 332.600 C 175.905 332.050,175.101 331.600,174.928 331.600 C 174.756 331.600,175.277 332.050,176.086 332.600 M189.600 332.631 C 189.600 332.901,191.678 333.656,191.876 333.457 C 191.967 333.367,191.492 333.101,190.820 332.867 C 190.149 332.633,189.600 332.527,189.600 332.631 M193.600 333.994 C 193.930 334.211,194.635 334.391,195.167 334.394 C 196.451 334.402,196.125 334.175,194.400 333.858 C 193.415 333.677,193.178 333.718,193.600 333.994 M203.373 333.976 C 203.168 334.175,202.460 334.415,201.800 334.509 L 200.600 334.680 201.800 334.734 C 203.013 334.788,204.358 334.225,203.962 333.828 C 203.843 333.710,203.579 333.776,203.373 333.976 M197.300 334.676 C 197.685 334.776,198.315 334.776,198.700 334.676 C 199.085 334.575,198.770 334.493,198.000 334.493 C 197.230 334.493,196.915 334.575,197.300 334.676 M214.400 337.800 C 213.850 338.114,213.580 338.372,213.800 338.372 C 214.020 338.372,214.650 338.114,215.200 337.800 C 215.750 337.486,216.020 337.228,215.800 337.228 C 215.580 337.228,214.950 337.486,214.400 337.800 M211.400 339.014 C 210.400 339.496,210.366 339.551,211.200 339.348 C 212.333 339.071,213.607 338.421,213.000 338.430 C 212.780 338.433,212.060 338.696,211.400 339.014 M191.000 340.000 C 191.440 340.189,192.160 340.338,192.600 340.332 C 193.243 340.323,193.204 340.257,192.400 340.000 C 191.032 339.562,189.981 339.562,191.000 340.000 M208.000 340.000 C 207.176 340.264,207.141 340.326,207.800 340.354 C 208.240 340.373,208.870 340.213,209.200 340.000 C 209.901 339.547,209.414 339.547,208.000 340.000 M198.512 341.095 C 199.564 341.177,201.184 341.176,202.112 341.092 C 203.040 341.008,202.180 340.941,200.200 340.942 C 198.220 340.943,197.460 341.012,198.512 341.095 M198.512 347.495 C 199.564 347.577,201.184 347.576,202.112 347.492 C 203.040 347.408,202.180 347.341,200.200 347.342 C 198.220 347.343,197.460 347.412,198.512 347.495 " stroke="none" fill="#949c9c" fill-rule="evenodd"></path><path id="path4" d="M195.705 46.687 C 196.314 46.779,197.214 46.777,197.705 46.682 C 198.197 46.587,197.700 46.511,196.600 46.514 C 195.500 46.517,195.097 46.595,195.705 46.687 M201.800 46.638 C 203.674 46.939,206.309 46.977,206.138 46.700 C 206.036 46.535,204.838 46.425,203.476 46.454 C 202.114 46.484,201.360 46.567,201.800 46.638 M198.512 59.895 C 199.564 59.977,201.184 59.976,202.112 59.892 C 203.040 59.808,202.180 59.741,200.200 59.742 C 198.220 59.743,197.460 59.812,198.512 59.895 M320.000 112.600 C 320.746 113.370,321.447 114.000,321.557 114.000 C 321.667 114.000,321.146 113.370,320.400 112.600 C 319.654 111.830,318.953 111.200,318.843 111.200 C 318.733 111.200,319.254 111.830,320.000 112.600 M84.181 117.300 L 82.600 119.000 84.300 117.419 C 85.881 115.948,86.184 115.600,85.881 115.600 C 85.816 115.600,85.051 116.365,84.181 117.300 M323.667 129.620 C 323.901 130.292,324.167 130.767,324.257 130.676 C 324.456 130.478,323.701 128.400,323.431 128.400 C 323.327 128.400,323.433 128.949,323.667 129.620 M82.379 132.655 C 82.158 133.236,82.052 133.785,82.143 133.876 C 82.233 133.967,82.499 133.492,82.733 132.820 C 83.253 131.328,82.939 131.182,82.379 132.655 M308.900 131.887 C 309.505 131.978,310.495 131.978,311.100 131.887 C 311.705 131.795,311.210 131.720,310.000 131.720 C 308.790 131.720,308.295 131.795,308.900 131.887 M305.600 132.418 C 305.162 132.715,305.324 132.752,306.200 132.556 C 307.671 132.227,307.990 131.998,306.967 132.006 C 306.545 132.009,305.930 132.195,305.600 132.418 M75.049 133.015 C 74.912 133.373,74.815 133.966,74.834 134.333 C 74.853 134.700,75.027 134.469,75.221 133.820 C 75.598 132.558,75.465 131.933,75.049 133.015 M68.093 136.800 C 68.093 137.570,68.175 137.885,68.276 137.500 C 68.376 137.115,68.376 136.485,68.276 136.100 C 68.175 135.715,68.093 136.030,68.093 136.800 M326.093 138.800 C 326.093 139.570,326.175 139.885,326.276 139.500 C 326.376 139.115,326.376 138.485,326.276 138.100 C 326.175 137.715,326.093 138.030,326.093 138.800 M67.709 140.400 C 67.709 141.390,67.787 141.795,67.882 141.300 C 67.978 140.805,67.978 139.995,67.882 139.500 C 67.787 139.005,67.709 139.410,67.709 140.400 M73.795 197.200 C 73.795 228.770,73.842 241.685,73.900 225.900 C 73.958 210.115,73.958 184.285,73.900 168.500 C 73.842 152.715,73.795 165.630,73.795 197.200 M80.594 197.000 C 80.594 227.140,80.642 239.411,80.700 224.269 C 80.758 209.127,80.758 184.467,80.700 169.469 C 80.642 154.471,80.594 166.860,80.594 197.000 M230.973 216.127 C 230.861 216.417,230.823 218.532,230.888 220.827 L 231.005 225.000 231.203 220.299 C 231.398 215.652,231.367 215.099,230.973 216.127 M243.100 219.482 C 243.595 219.578,244.405 219.578,244.900 219.482 C 245.395 219.387,244.990 219.309,244.000 219.309 C 243.010 219.309,242.605 219.387,243.100 219.482 M246.229 223.429 C 246.081 224.015,246.038 224.572,246.132 224.666 C 246.227 224.760,246.424 224.358,246.571 223.771 C 246.719 223.185,246.762 222.628,246.668 222.534 C 246.573 222.440,246.376 222.842,246.229 223.429 M228.575 226.900 L 227.400 228.200 228.700 227.025 C 229.415 226.379,230.000 225.794,230.000 225.725 C 230.000 225.416,229.670 225.688,228.575 226.900 M240.500 229.476 C 240.885 229.576,241.515 229.576,241.900 229.476 C 242.285 229.375,241.970 229.293,241.200 229.293 C 240.430 229.293,240.115 229.375,240.500 229.476 M67.714 253.400 C 67.717 254.500,67.795 254.903,67.887 254.295 C 67.979 253.686,67.977 252.786,67.882 252.295 C 67.787 251.803,67.711 252.300,67.714 253.400 M248.468 253.600 C 248.488 254.639,249.118 256.346,249.132 255.400 C 249.138 254.960,248.989 254.240,248.800 253.800 C 248.589 253.310,248.461 253.232,248.468 253.600 M326.093 255.200 C 326.093 255.970,326.175 256.285,326.276 255.900 C 326.376 255.515,326.376 254.885,326.276 254.500 C 326.175 254.115,326.093 254.430,326.093 255.200 M68.093 257.200 C 68.093 257.970,68.175 258.285,68.276 257.900 C 68.376 257.515,68.376 256.885,68.276 256.500 C 68.175 256.115,68.093 256.430,68.093 257.200 M228.400 256.800 C 228.950 256.976,229.850 257.117,230.400 257.113 C 231.298 257.106,231.278 257.074,230.200 256.800 C 228.508 256.369,227.056 256.369,228.400 256.800 M240.296 262.283 C 240.521 265.442,240.732 265.858,240.762 263.200 C 240.776 261.990,240.640 260.767,240.460 260.483 C 240.276 260.194,240.204 260.989,240.296 262.283 M236.778 271.500 L 235.400 273.000 236.900 271.622 C 238.296 270.338,238.584 270.000,238.278 270.000 C 238.212 270.000,237.537 270.675,236.778 271.500 M89.200 272.200 C 89.946 272.970,90.647 273.600,90.757 273.600 C 90.867 273.600,90.346 272.970,89.600 272.200 C 88.854 271.430,88.153 270.800,88.043 270.800 C 87.933 270.800,88.454 271.430,89.200 272.200 M84.600 277.200 C 85.906 278.520,87.065 279.600,87.175 279.600 C 87.285 279.600,86.306 278.520,85.000 277.200 C 83.694 275.880,82.535 274.800,82.425 274.800 C 82.315 274.800,83.294 275.880,84.600 277.200 M222.155 276.212 C 221.790 276.769,221.564 277.298,221.653 277.387 C 221.742 277.476,222.118 277.020,222.489 276.374 C 223.314 274.936,223.069 274.817,222.155 276.212 M315.600 277.000 C 314.628 277.990,313.923 278.800,314.033 278.800 C 314.143 278.800,315.028 277.990,316.000 277.000 C 316.972 276.010,317.677 275.200,317.567 275.200 C 317.457 275.200,316.572 276.010,315.600 277.000 M225.900 275.882 C 226.395 275.978,227.205 275.978,227.700 275.882 C 228.195 275.787,227.790 275.709,226.800 275.709 C 225.810 275.709,225.405 275.787,225.900 275.882 M239.986 278.300 L 237.800 280.600 240.100 278.414 C 242.237 276.382,242.583 276.000,242.286 276.000 C 242.224 276.000,241.189 277.035,239.986 278.300 M321.578 279.500 L 320.200 281.000 321.700 279.622 C 323.096 278.338,323.384 278.000,323.078 278.000 C 323.012 278.000,322.337 278.675,321.578 279.500 M230.486 284.650 C 231.066 284.822,231.190 285.483,231.286 288.894 C 231.376 292.080,231.527 292.970,232.000 293.098 C 232.428 293.214,232.461 293.162,232.116 292.916 C 231.806 292.697,231.589 291.131,231.516 288.591 C 231.410 284.947,231.332 284.602,230.600 284.528 C 230.004 284.467,229.975 284.498,230.486 284.650 M227.600 285.200 C 226.776 285.464,226.741 285.526,227.400 285.554 C 227.840 285.573,228.470 285.413,228.800 285.200 C 229.501 284.747,229.014 284.747,227.600 285.200 M222.900 285.887 C 223.505 285.978,224.495 285.978,225.100 285.887 C 225.705 285.795,225.210 285.720,224.000 285.720 C 222.790 285.720,222.295 285.795,222.900 285.887 M196.880 323.800 C 196.880 324.240,197.024 325.050,197.200 325.600 C 197.454 326.392,197.520 326.433,197.520 325.800 C 197.520 325.360,197.376 324.550,197.200 324.000 C 196.946 323.208,196.880 323.167,196.880 323.800 M199.600 330.925 C 199.600 330.994,200.185 331.579,200.900 332.225 L 202.200 333.400 201.025 332.100 C 199.930 330.888,199.600 330.616,199.600 330.925 M202.200 334.000 L 201.000 334.305 202.076 334.353 C 202.668 334.379,203.264 334.220,203.400 334.000 C 203.536 333.780,203.592 333.621,203.524 333.647 C 203.456 333.673,202.860 333.832,202.200 334.000 M196.705 334.283 C 197.202 334.379,197.922 334.375,198.305 334.275 C 198.687 334.175,198.280 334.096,197.400 334.101 C 196.520 334.105,196.207 334.187,196.705 334.283 M193.621 340.821 C 194.155 341.160,197.142 341.381,196.767 341.055 C 196.675 340.975,195.799 340.808,194.821 340.682 C 193.670 340.535,193.246 340.584,193.621 340.821 M204.100 341.076 C 204.485 341.176,205.115 341.176,205.500 341.076 C 205.885 340.975,205.570 340.893,204.800 340.893 C 204.030 340.893,203.715 340.975,204.100 341.076 " stroke="none" fill="#b2b7b7" fill-rule="evenodd"></path></g></svg>