<svg id="svg" version="1.1" width="400" height="400" viewBox="0 0 400 400" xmlns="http://www.w3.org/2000/svg" xmlns:xlink="http://www.w3.org/1999/xlink"><g id="svgg"><path id="path0" d="M252.400 44.000 C 252.070 44.213,251.136 44.391,250.324 44.394 C 249.512 44.397,248.736 44.580,248.600 44.800 C 248.464 45.020,247.821 45.200,247.171 45.200 C 246.035 45.200,245.682 45.316,243.705 46.338 C 243.213 46.592,242.448 46.800,242.005 46.800 C 241.562 46.800,241.200 46.980,241.200 47.200 C 241.200 47.420,240.761 47.600,240.224 47.600 C 239.687 47.600,239.136 47.780,239.000 48.000 C 238.864 48.220,238.403 48.400,237.976 48.400 C 237.549 48.400,237.200 48.580,237.200 48.800 C 237.200 49.020,236.840 49.200,236.400 49.200 C 235.960 49.200,235.600 49.380,235.600 49.600 C 235.600 49.820,235.240 50.000,234.800 50.000 C 234.360 50.000,234.000 50.180,234.000 50.400 C 234.000 50.620,233.640 50.800,233.200 50.800 C 232.760 50.800,232.400 50.980,232.400 51.200 C 232.400 51.420,232.080 51.600,231.688 51.600 C 231.297 51.600,230.717 51.960,230.400 52.400 C 230.083 52.840,229.503 53.200,229.112 53.200 C 228.720 53.200,228.400 53.380,228.400 53.600 C 228.400 53.820,228.164 54.000,227.875 54.000 C 227.587 54.000,226.924 54.397,226.403 54.883 C 225.775 55.468,225.401 55.603,225.294 55.283 C 225.206 55.017,224.788 54.800,224.367 54.800 C 223.945 54.800,223.600 54.650,223.600 54.468 C 223.600 54.285,223.105 53.880,222.500 53.568 C 221.895 53.255,221.051 52.685,220.625 52.300 C 220.198 51.915,219.433 51.600,218.925 51.600 C 218.416 51.600,218.000 51.420,218.000 51.200 C 218.000 50.971,216.800 50.800,215.200 50.800 C 213.600 50.800,212.400 50.971,212.400 51.200 C 212.400 51.420,211.860 51.600,211.200 51.600 C 210.540 51.600,210.000 51.780,210.000 52.000 C 210.000 52.220,209.712 52.400,209.360 52.400 C 209.009 52.400,208.217 52.940,207.600 53.600 C 206.983 54.260,206.277 54.800,206.029 54.800 C 205.407 54.800,202.000 58.261,202.000 58.893 C 202.000 59.176,201.650 59.626,201.222 59.894 C 200.367 60.427,197.200 64.904,197.200 65.578 C 197.200 65.810,197.062 66.000,196.894 66.000 C 196.726 66.000,196.282 66.675,195.906 67.500 C 195.531 68.325,194.922 69.540,194.552 70.200 C 193.451 72.163,193.200 72.757,193.200 73.395 C 193.200 73.728,193.020 74.000,192.800 74.000 C 192.580 74.000,192.400 74.619,192.400 75.376 C 192.400 76.133,192.220 76.864,192.000 77.000 C 191.773 77.140,191.600 79.137,191.600 81.624 C 191.600 84.275,191.758 86.000,192.000 86.000 C 192.220 86.000,192.400 86.276,192.400 86.613 C 192.400 87.276,194.933 90.000,195.549 90.000 C 195.755 90.000,196.706 90.386,197.662 90.857 C 198.618 91.328,199.850 91.889,200.400 92.103 C 200.950 92.318,201.713 92.652,202.095 92.847 C 202.477 93.041,203.152 93.200,203.595 93.200 C 204.038 93.200,204.400 93.380,204.400 93.600 C 204.400 93.820,204.760 94.000,205.200 94.000 C 205.640 94.000,206.000 94.180,206.000 94.400 C 206.000 94.620,206.360 94.800,206.800 94.800 C 207.540 94.800,207.776 95.192,207.642 96.200 C 207.612 96.420,207.816 96.328,208.094 95.994 C 208.372 95.661,209.070 95.089,209.645 94.721 C 210.274 94.319,211.345 92.694,212.336 90.638 C 213.242 88.759,214.549 86.722,215.241 86.111 C 216.553 84.953,220.800 79.440,220.800 78.895 C 220.800 78.723,221.520 77.960,222.400 77.200 C 223.280 76.440,224.000 75.626,224.000 75.390 C 224.000 74.514,232.612 67.225,235.135 65.966 C 235.721 65.674,236.485 65.201,236.834 64.915 C 237.786 64.135,244.766 60.800,245.447 60.800 C 245.773 60.800,246.552 60.535,247.177 60.212 C 252.637 57.388,272.538 56.200,278.752 58.327 C 280.156 58.807,281.686 59.206,282.152 59.214 C 282.618 59.221,283.720 59.575,284.600 60.000 C 285.480 60.425,286.438 60.779,286.730 60.786 C 287.536 60.807,295.212 64.734,296.800 65.938 C 297.570 66.522,298.708 67.274,299.328 67.609 C 301.102 68.567,306.784 73.921,309.294 77.000 C 312.501 80.935,315.200 84.639,315.200 85.106 C 315.200 85.324,315.453 85.712,315.761 85.968 C 317.285 87.233,320.856 96.520,322.002 102.200 C 322.268 103.520,322.647 105.122,322.843 105.760 C 323.039 106.398,323.200 110.759,323.200 115.451 C 323.200 124.687,324.027 128.400,326.083 128.400 C 326.477 128.400,326.800 128.580,326.800 128.800 C 326.800 129.029,328.000 129.200,329.600 129.200 C 331.200 129.200,332.400 129.029,332.400 128.800 C 332.400 128.580,332.676 128.400,333.013 128.400 C 333.766 128.400,336.400 125.829,336.400 125.093 C 336.400 124.800,336.606 124.354,336.857 124.103 C 337.487 123.473,337.476 104.516,336.845 103.885 C 336.600 103.640,336.400 102.587,336.400 101.544 C 336.400 100.501,336.220 99.536,336.000 99.400 C 335.780 99.264,335.600 98.544,335.600 97.800 C 335.600 97.056,335.420 96.336,335.200 96.200 C 334.980 96.064,334.800 95.434,334.800 94.800 C 334.800 94.166,334.620 93.536,334.400 93.400 C 334.180 93.264,334.000 92.724,334.000 92.200 C 334.000 91.676,333.820 91.136,333.600 91.000 C 333.380 90.864,333.200 90.403,333.200 89.976 C 333.200 89.549,333.020 89.200,332.800 89.200 C 332.580 89.200,332.400 88.660,332.400 88.000 C 332.400 87.340,332.220 86.800,332.000 86.800 C 331.780 86.800,331.600 86.440,331.600 86.000 C 331.600 85.560,331.420 85.200,331.200 85.200 C 330.980 85.200,330.800 84.840,330.800 84.400 C 330.800 83.960,330.620 83.600,330.400 83.600 C 330.180 83.600,330.000 83.240,330.000 82.800 C 330.000 82.360,329.820 82.000,329.600 82.000 C 329.380 82.000,329.200 81.640,329.200 81.200 C 329.200 80.760,329.020 80.400,328.800 80.400 C 328.580 80.400,328.400 80.040,328.400 79.600 C 328.400 79.160,328.220 78.800,328.000 78.800 C 327.780 78.800,327.600 78.607,327.600 78.372 C 327.600 77.865,325.191 74.259,324.723 74.067 C 324.545 73.993,324.400 73.705,324.400 73.426 C 324.400 73.147,323.860 72.354,323.200 71.663 C 322.540 70.972,322.000 70.244,322.000 70.044 C 322.000 69.844,321.100 68.762,320.000 67.639 C 318.900 66.515,318.000 65.443,318.000 65.256 C 318.000 64.948,315.800 62.826,312.447 59.900 C 311.753 59.295,310.992 58.800,310.754 58.800 C 310.516 58.800,309.817 58.260,309.200 57.600 C 308.583 56.940,307.831 56.400,307.528 56.400 C 307.225 56.400,306.717 56.040,306.400 55.600 C 306.083 55.160,305.543 54.800,305.200 54.800 C 304.857 54.800,304.317 54.440,304.000 54.000 C 303.683 53.560,303.186 53.200,302.895 53.200 C 302.604 53.200,301.980 52.840,301.508 52.400 C 301.036 51.960,300.413 51.600,300.125 51.600 C 299.836 51.600,299.600 51.420,299.600 51.200 C 299.600 50.980,299.240 50.800,298.800 50.800 C 298.360 50.800,298.000 50.620,298.000 50.400 C 298.000 50.180,297.640 50.000,297.200 50.000 C 296.760 50.000,296.400 49.820,296.400 49.600 C 296.400 49.380,296.040 49.200,295.600 49.200 C 295.160 49.200,294.800 49.020,294.800 48.800 C 294.800 48.580,294.451 48.400,294.024 48.400 C 293.597 48.400,293.136 48.220,293.000 48.000 C 292.864 47.780,292.313 47.600,291.776 47.600 C 291.239 47.600,290.800 47.420,290.800 47.200 C 290.800 46.980,290.361 46.800,289.824 46.800 C 289.287 46.800,288.736 46.620,288.600 46.400 C 288.464 46.180,287.924 46.000,287.400 46.000 C 286.876 46.000,286.336 45.820,286.200 45.600 C 286.064 45.380,285.434 45.200,284.800 45.200 C 284.166 45.200,283.536 45.020,283.400 44.800 C 283.264 44.580,282.454 44.400,281.600 44.400 C 280.746 44.400,279.936 44.220,279.800 44.000 C 279.471 43.468,253.224 43.468,252.400 44.000 M202.684 78.973 C 204.659 80.804,203.762 83.600,201.200 83.600 C 198.784 83.600,197.909 80.923,199.700 79.010 C 200.851 77.781,201.391 77.774,202.684 78.973 M200.400 100.000 C 200.400 100.220,200.040 100.400,199.600 100.400 C 199.160 100.400,198.800 100.580,198.800 100.800 C 198.800 101.020,198.506 101.200,198.147 101.200 C 195.481 101.200,193.195 111.056,194.328 117.665 C 194.588 119.177,194.800 121.571,194.800 122.984 C 194.800 124.397,194.980 125.664,195.200 125.800 C 195.420 125.936,195.600 126.836,195.600 127.800 C 195.600 128.764,195.780 129.664,196.000 129.800 C 196.220 129.936,196.400 130.656,196.400 131.400 C 196.400 132.144,196.580 132.864,196.800 133.000 C 197.020 133.136,197.200 133.777,197.200 134.424 C 197.200 135.071,197.380 135.600,197.600 135.600 C 197.820 135.600,198.000 136.140,198.000 136.800 C 198.000 137.460,198.180 138.000,198.400 138.000 C 198.620 138.000,198.800 138.439,198.800 138.976 C 198.800 139.513,198.980 140.064,199.200 140.200 C 199.420 140.336,199.600 140.797,199.600 141.224 C 199.600 141.651,199.780 142.000,200.000 142.000 C 200.220 142.000,200.400 142.360,200.400 142.800 C 200.400 143.240,200.580 143.600,200.800 143.600 C 201.020 143.600,201.200 143.960,201.200 144.400 C 201.200 144.840,201.380 145.200,201.600 145.200 C 201.820 145.200,202.000 145.560,202.000 146.000 C 202.000 146.440,202.180 146.800,202.400 146.800 C 202.620 146.800,202.800 147.160,202.800 147.600 C 202.800 148.040,202.980 148.400,203.200 148.400 C 203.420 148.400,203.600 148.760,203.600 149.200 C 203.600 149.640,203.780 150.000,204.000 150.000 C 204.220 150.000,204.400 150.236,204.400 150.525 C 204.400 150.813,204.760 151.436,205.200 151.908 C 205.640 152.380,206.000 153.004,206.000 153.295 C 206.000 153.586,206.360 154.083,206.800 154.400 C 207.240 154.717,207.600 155.173,207.600 155.413 C 207.600 155.653,207.920 156.198,208.311 156.625 C 208.702 157.051,209.466 158.030,210.008 158.800 C 211.298 160.631,220.199 169.525,222.000 170.783 C 222.770 171.321,223.490 171.872,223.600 172.007 C 224.035 172.542,227.570 174.800,227.972 174.800 C 228.207 174.800,228.400 174.980,228.400 175.200 C 228.400 175.420,228.760 175.600,229.200 175.600 C 229.640 175.600,230.000 175.780,230.000 176.000 C 230.000 176.220,230.360 176.400,230.800 176.400 C 231.240 176.400,231.600 176.580,231.600 176.800 C 231.600 177.020,231.960 177.200,232.400 177.200 C 232.840 177.200,233.200 177.380,233.200 177.600 C 233.200 177.820,233.560 178.000,234.000 178.000 C 234.440 178.000,234.800 178.180,234.800 178.400 C 234.800 178.620,235.160 178.800,235.600 178.800 C 236.040 178.800,236.400 178.980,236.400 179.200 C 236.400 179.420,236.760 179.600,237.200 179.600 C 237.640 179.600,238.000 179.780,238.000 180.000 C 238.000 180.220,238.360 180.400,238.800 180.400 C 239.240 180.400,239.600 180.580,239.600 180.800 C 239.600 181.020,240.140 181.200,240.800 181.200 C 241.460 181.200,242.000 181.380,242.000 181.600 C 242.000 181.820,242.540 182.000,243.200 182.000 C 243.860 182.000,244.400 182.180,244.400 182.400 C 244.400 182.620,244.940 182.800,245.600 182.800 C 246.260 182.800,246.800 182.980,246.800 183.200 C 246.800 183.420,247.520 183.600,248.400 183.600 C 249.280 183.600,250.000 183.780,250.000 184.000 C 250.000 184.220,250.709 184.400,251.576 184.400 C 252.443 184.400,253.264 184.580,253.400 184.800 C 253.536 185.020,254.976 185.200,256.600 185.200 C 258.224 185.200,259.664 185.380,259.800 185.600 C 259.947 185.838,262.463 186.000,266.000 186.000 C 269.537 186.000,272.053 185.838,272.200 185.600 C 272.336 185.380,273.776 185.200,275.400 185.200 C 277.024 185.200,278.464 185.020,278.600 184.800 C 278.736 184.580,279.557 184.400,280.424 184.400 C 281.291 184.400,282.000 184.220,282.000 184.000 C 282.000 183.780,282.720 183.600,283.600 183.600 C 284.480 183.600,285.200 183.420,285.200 183.200 C 285.200 182.980,285.740 182.800,286.400 182.800 C 287.060 182.800,287.600 182.620,287.600 182.400 C 287.600 182.180,288.140 182.000,288.800 182.000 C 289.460 182.000,290.000 181.820,290.000 181.600 C 290.000 181.380,290.540 181.200,291.200 181.200 C 291.860 181.200,292.400 181.020,292.400 180.800 C 292.400 180.580,292.760 180.400,293.200 180.400 C 293.640 180.400,294.000 180.220,294.000 180.000 C 294.000 179.780,294.360 179.600,294.800 179.600 C 295.240 179.600,295.600 179.420,295.600 179.200 C 295.600 178.980,295.960 178.800,296.400 178.800 C 296.840 178.800,297.200 178.620,297.200 178.400 C 297.200 178.180,297.560 178.000,298.000 178.000 C 298.440 178.000,298.800 177.820,298.800 177.600 C 298.800 177.380,299.160 177.200,299.600 177.200 C 300.040 177.200,300.400 177.020,300.400 176.800 C 300.400 176.580,300.760 176.400,301.200 176.400 C 301.640 176.400,302.000 176.264,302.000 176.098 C 302.000 175.931,302.585 175.543,303.300 175.235 C 304.015 174.927,305.050 174.378,305.600 174.017 C 306.581 173.371,308.400 173.682,308.400 174.495 C 308.400 174.663,308.720 174.800,309.112 174.800 C 309.503 174.800,310.083 175.160,310.400 175.600 C 310.717 176.040,311.297 176.400,311.688 176.400 C 312.080 176.400,312.400 176.580,312.400 176.800 C 312.400 177.020,312.760 177.200,313.200 177.200 C 313.640 177.200,314.000 177.380,314.000 177.600 C 314.000 177.840,315.600 178.000,318.000 178.000 C 320.400 178.000,322.000 177.840,322.000 177.600 C 322.000 177.380,322.234 177.200,322.520 177.200 C 323.256 177.200,325.193 176.259,325.197 175.900 C 325.199 175.735,325.502 175.600,325.871 175.600 C 326.682 175.600,334.000 168.199,334.000 167.379 C 334.000 167.061,334.150 166.800,334.332 166.800 C 334.515 166.800,334.920 166.305,335.232 165.700 C 335.545 165.095,336.115 164.251,336.500 163.825 C 336.885 163.398,337.200 162.813,337.200 162.525 C 337.200 162.236,337.352 162.000,337.537 162.000 C 337.723 162.000,338.282 161.145,338.781 160.100 C 339.280 159.055,339.848 157.887,340.044 157.505 C 340.240 157.123,340.400 156.538,340.400 156.205 C 340.400 155.872,340.580 155.600,340.800 155.600 C 341.020 155.600,341.204 155.195,341.209 154.700 C 341.214 154.205,341.570 153.350,342.000 152.800 C 342.682 151.928,342.783 151.145,342.791 146.689 L 342.800 141.579 341.011 139.789 C 340.026 138.805,338.946 138.000,338.611 138.000 C 338.275 138.000,338.000 137.820,338.000 137.600 C 338.000 137.380,337.640 137.200,337.200 137.200 C 336.760 137.200,336.400 137.020,336.400 136.800 C 336.400 136.580,335.961 136.400,335.424 136.400 C 334.887 136.400,334.336 136.220,334.200 136.000 C 334.064 135.780,333.603 135.600,333.176 135.600 C 332.749 135.600,332.400 135.420,332.400 135.200 C 332.400 134.980,332.040 134.800,331.600 134.800 C 331.160 134.800,330.800 134.620,330.800 134.400 C 330.800 134.180,330.440 134.000,330.000 134.000 C 329.560 134.000,329.200 133.841,329.200 133.647 C 329.200 133.452,328.885 133.193,328.500 133.071 C 327.562 132.774,325.469 131.496,325.119 131.008 C 324.549 130.210,322.566 132.321,320.969 135.428 C 317.831 141.530,317.255 142.399,314.637 144.978 C 313.187 146.407,312.000 147.754,312.000 147.971 C 312.000 149.329,306.528 155.339,301.800 159.174 C 297.759 162.451,291.146 166.400,289.699 166.400 C 289.272 166.400,288.558 166.715,288.113 167.100 C 286.705 168.318,278.552 170.605,273.200 171.285 C 267.306 172.033,253.784 171.117,252.553 169.886 C 252.395 169.729,251.802 169.600,251.235 169.600 C 250.006 169.600,244.056 167.696,243.200 167.029 C 242.870 166.771,241.610 166.132,240.400 165.608 C 230.654 161.388,218.146 148.531,213.738 138.200 C 209.749 128.851,209.159 125.956,208.846 114.200 C 208.578 104.158,207.697 100.400,205.612 100.400 C 205.191 100.400,204.736 100.220,204.600 100.000 C 204.464 99.780,203.463 99.600,202.376 99.600 C 201.289 99.600,200.400 99.780,200.400 100.000 M334.500 144.547 C 336.041 145.873,335.637 149.189,333.933 149.197 C 333.567 149.199,333.198 149.405,333.115 149.654 C 332.960 150.121,331.624 149.543,330.515 148.529 C 328.088 146.308,332.001 142.398,334.500 144.547 M253.200 195.600 L 253.200 204.400 254.100 204.406 C 254.595 204.409,255.270 204.587,255.600 204.800 C 256.046 205.088,255.816 205.189,254.700 205.194 L 253.200 205.200 253.200 239.418 L 253.200 273.636 254.182 274.618 C 254.722 275.158,255.442 275.600,255.782 275.600 C 256.122 275.600,256.400 275.780,256.400 276.000 C 256.400 276.220,256.760 276.400,257.200 276.400 C 257.640 276.400,258.000 276.580,258.000 276.800 C 258.000 277.020,258.450 277.200,259.000 277.200 C 259.550 277.200,260.360 277.560,260.800 278.000 C 261.987 279.187,270.883 279.187,272.400 278.000 C 272.950 277.570,273.698 277.214,274.062 277.209 C 274.903 277.198,278.000 275.559,278.000 275.126 C 278.000 274.947,278.283 274.800,278.629 274.800 C 280.446 274.800,280.400 275.726,280.400 239.429 L 280.400 205.200 278.776 205.200 C 277.796 205.200,277.251 205.042,277.400 204.800 C 277.536 204.580,278.267 204.400,279.024 204.400 L 280.400 204.400 280.400 195.600 L 280.400 186.800 277.200 186.800 C 275.333 186.800,274.000 186.967,274.000 187.200 C 274.000 187.453,271.200 187.600,266.400 187.600 C 261.600 187.600,258.800 187.453,258.800 187.200 C 258.800 186.971,257.600 186.800,256.000 186.800 L 253.200 186.800 253.200 195.600 M262.800 200.320 C 262.800 205.246,262.745 205.192,267.780 205.232 C 272.622 205.270,272.296 205.537,266.943 205.919 L 263.000 206.200 262.800 237.600 C 262.612 267.135,262.558 269.003,261.900 269.056 C 261.239 269.108,261.200 267.375,261.200 237.805 C 261.200 210.234,261.127 206.438,260.590 205.992 C 260.043 205.538,260.043 205.415,260.590 204.811 C 261.048 204.305,261.200 203.174,261.200 200.269 C 261.200 196.667,261.255 196.400,262.000 196.400 C 262.746 196.400,262.800 196.667,262.800 200.320 M122.267 305.467 C 122.120 305.613,122.000 318.213,122.000 333.467 L 122.000 361.200 125.196 361.200 L 128.393 361.200 128.502 341.100 C 128.566 329.467,128.756 321.379,128.953 321.900 C 129.140 322.395,129.452 322.800,129.647 322.800 C 129.841 322.800,130.000 323.160,130.000 323.600 C 130.000 324.040,130.180 324.400,130.400 324.400 C 130.620 324.400,130.800 324.760,130.800 325.200 C 130.800 325.640,130.980 326.000,131.200 326.000 C 131.420 326.000,131.600 326.360,131.600 326.800 C 131.600 327.240,131.780 327.600,132.000 327.600 C 132.220 327.600,132.400 327.960,132.400 328.400 C 132.400 328.840,132.559 329.200,132.753 329.200 C 132.948 329.200,133.207 329.515,133.329 329.900 C 133.625 330.836,134.924 332.966,135.300 333.133 C 135.465 333.207,135.600 333.612,135.600 334.033 C 135.600 334.455,135.780 334.800,136.000 334.800 C 136.220 334.800,136.400 335.160,136.400 335.600 C 136.400 336.040,136.580 336.400,136.800 336.400 C 137.020 336.400,137.200 336.760,137.200 337.200 C 137.200 337.640,137.380 338.000,137.600 338.000 C 137.820 338.000,138.000 338.345,138.000 338.767 C 138.000 339.188,138.135 339.593,138.300 339.667 C 138.676 339.834,139.975 341.964,140.271 342.900 C 140.393 343.285,140.652 343.600,140.847 343.600 C 141.041 343.600,141.200 343.960,141.200 344.400 C 141.200 344.840,141.380 345.200,141.600 345.200 C 141.820 345.200,142.000 345.560,142.000 346.000 C 142.000 346.440,142.180 346.800,142.400 346.800 C 142.620 346.800,142.800 347.160,142.800 347.600 C 142.800 348.040,142.980 348.400,143.200 348.400 C 143.420 348.400,143.600 348.760,143.600 349.200 C 143.600 349.904,143.867 350.000,145.829 350.000 C 148.122 350.000,149.200 349.434,149.200 348.229 C 149.200 347.883,149.380 347.600,149.600 347.600 C 149.820 347.600,150.000 347.240,150.000 346.800 C 150.000 346.360,150.180 346.000,150.400 346.000 C 150.620 346.000,150.800 345.640,150.800 345.200 C 150.800 344.760,150.980 344.400,151.200 344.400 C 151.420 344.400,151.600 344.055,151.600 343.633 C 151.600 343.212,151.735 342.807,151.900 342.733 C 152.276 342.566,153.575 340.436,153.871 339.500 C 153.993 339.115,154.252 338.800,154.447 338.800 C 154.641 338.800,154.800 338.440,154.800 338.000 C 154.800 337.560,154.980 337.200,155.200 337.200 C 155.420 337.200,155.600 336.840,155.600 336.400 C 155.600 335.960,155.780 335.600,156.000 335.600 C 156.220 335.600,156.400 335.240,156.400 334.800 C 156.400 334.360,156.580 334.000,156.800 334.000 C 157.020 334.000,157.200 333.640,157.200 333.200 C 157.200 332.760,157.359 332.400,157.553 332.400 C 157.748 332.400,158.007 332.085,158.129 331.700 C 158.425 330.764,159.724 328.634,160.100 328.467 C 160.265 328.393,160.400 327.988,160.400 327.567 C 160.400 327.145,160.580 326.800,160.800 326.800 C 161.020 326.800,161.200 326.440,161.200 326.000 C 161.200 325.560,161.380 325.200,161.600 325.200 C 161.820 325.200,162.000 324.840,162.000 324.400 C 162.000 323.960,162.180 323.600,162.400 323.600 C 162.620 323.600,162.800 323.240,162.800 322.800 C 162.800 322.360,162.978 322.000,163.196 322.000 C 163.451 322.000,163.629 328.961,163.696 341.500 L 163.800 361.000 166.737 361.118 C 168.558 361.192,169.888 361.059,170.237 360.769 C 171.006 360.131,171.087 306.447,170.320 305.680 C 169.024 304.384,163.600 305.404,163.600 306.944 C 163.600 307.305,163.420 307.600,163.200 307.600 C 162.980 307.600,162.800 307.960,162.800 308.400 C 162.800 308.840,162.620 309.200,162.400 309.200 C 162.180 309.200,162.000 309.560,162.000 310.000 C 162.000 310.440,161.848 310.800,161.663 310.800 C 161.477 310.800,160.892 311.655,160.363 312.700 C 159.833 313.745,159.265 314.660,159.100 314.733 C 158.935 314.807,158.800 315.212,158.800 315.633 C 158.800 316.055,158.620 316.400,158.400 316.400 C 158.180 316.400,158.000 316.760,158.000 317.200 C 158.000 317.640,157.820 318.000,157.600 318.000 C 157.380 318.000,157.200 318.360,157.200 318.800 C 157.200 319.240,157.020 319.600,156.800 319.600 C 156.580 319.600,156.400 319.960,156.400 320.400 C 156.400 320.840,156.220 321.200,156.000 321.200 C 155.780 321.200,155.600 321.560,155.600 322.000 C 155.600 322.440,155.420 322.800,155.200 322.800 C 154.980 322.800,154.800 323.160,154.800 323.600 C 154.800 324.040,154.641 324.400,154.447 324.400 C 154.252 324.400,153.993 324.715,153.871 325.100 C 153.575 326.036,152.276 328.166,151.900 328.333 C 151.735 328.407,151.600 328.812,151.600 329.233 C 151.600 329.655,151.420 330.000,151.200 330.000 C 150.980 330.000,150.800 330.360,150.800 330.800 C 150.800 331.240,150.620 331.600,150.400 331.600 C 150.180 331.600,150.000 331.960,150.000 332.400 C 150.000 332.840,149.820 333.200,149.600 333.200 C 149.380 333.200,149.200 333.560,149.200 334.000 C 149.200 334.440,149.020 334.800,148.800 334.800 C 148.580 334.800,148.400 335.160,148.400 335.600 C 148.400 336.040,148.220 336.400,148.000 336.400 C 147.780 336.400,147.600 336.586,147.600 336.814 C 147.600 337.042,147.316 337.661,146.970 338.190 C 146.261 339.272,145.200 339.133,145.200 337.957 C 145.200 337.541,145.020 337.200,144.800 337.200 C 144.580 337.200,144.400 336.840,144.400 336.400 C 144.400 335.960,144.220 335.600,144.000 335.600 C 143.780 335.600,143.600 335.240,143.600 334.800 C 143.600 334.360,143.420 334.000,143.200 334.000 C 142.980 334.000,142.800 333.640,142.800 333.200 C 142.800 332.760,142.620 332.400,142.400 332.400 C 142.180 332.400,142.000 332.055,142.000 331.633 C 142.000 331.212,141.865 330.807,141.700 330.733 C 141.324 330.566,140.025 328.436,139.729 327.500 C 139.607 327.115,139.348 326.800,139.153 326.800 C 138.959 326.800,138.800 326.440,138.800 326.000 C 138.800 325.560,138.620 325.200,138.400 325.200 C 138.180 325.200,138.000 324.840,138.000 324.400 C 138.000 323.960,137.820 323.600,137.600 323.600 C 137.380 323.600,137.200 323.240,137.200 322.800 C 137.200 322.360,137.020 322.000,136.800 322.000 C 136.580 322.000,136.400 321.640,136.400 321.200 C 136.400 320.760,136.220 320.400,136.000 320.400 C 135.780 320.400,135.600 320.040,135.600 319.600 C 135.600 319.160,135.420 318.800,135.200 318.800 C 134.980 318.800,134.800 318.440,134.800 318.000 C 134.800 317.560,134.620 317.200,134.400 317.200 C 134.180 317.200,134.000 316.840,134.000 316.400 C 134.000 315.960,133.841 315.600,133.647 315.600 C 133.452 315.600,133.193 315.285,133.071 314.900 C 132.775 313.964,131.476 311.834,131.100 311.667 C 130.935 311.593,130.800 311.188,130.800 310.767 C 130.800 310.345,130.620 310.000,130.400 310.000 C 130.180 310.000,130.000 309.640,130.000 309.200 C 130.000 308.760,129.820 308.400,129.600 308.400 C 129.380 308.400,129.200 308.122,129.200 307.782 C 129.200 305.906,123.673 304.061,122.267 305.467 M215.867 305.467 C 215.720 305.613,215.600 318.213,215.600 333.467 L 215.600 361.200 218.720 361.200 C 223.066 361.200,222.800 361.961,222.800 349.520 L 222.800 338.800 230.576 338.800 C 235.329 338.800,238.449 338.644,238.600 338.400 C 238.736 338.180,239.377 338.000,240.024 338.000 C 240.671 338.000,241.200 337.820,241.200 337.600 C 241.200 337.380,241.623 337.200,242.141 337.200 C 242.658 337.200,243.612 336.693,244.260 336.074 C 244.908 335.454,245.745 334.830,246.119 334.686 C 246.494 334.543,246.800 334.189,246.800 333.901 C 246.800 333.613,247.160 333.117,247.600 332.800 C 248.040 332.483,248.400 331.903,248.400 331.512 C 248.400 331.120,248.580 330.800,248.800 330.800 C 249.020 330.800,249.200 330.451,249.200 330.024 C 249.200 329.597,249.380 329.136,249.600 329.000 C 249.820 328.864,250.000 327.899,250.000 326.856 C 250.000 325.813,250.198 324.762,250.439 324.521 C 250.862 324.098,250.813 322.872,250.174 317.800 C 250.036 316.700,249.760 315.629,249.561 315.420 C 249.363 315.211,249.200 314.626,249.200 314.120 C 249.200 313.614,249.020 313.200,248.800 313.200 C 248.580 313.200,248.400 312.926,248.400 312.591 C 248.400 311.799,244.201 307.600,243.409 307.600 C 243.074 307.600,242.800 307.420,242.800 307.200 C 242.800 306.980,242.451 306.800,242.024 306.800 C 241.597 306.800,241.136 306.620,241.000 306.400 C 240.864 306.180,239.964 306.000,239.000 306.000 C 238.036 306.000,237.136 305.820,237.000 305.600 C 236.723 305.152,216.310 305.023,215.867 305.467 M256.080 305.680 C 255.386 306.374,255.386 360.026,256.080 360.720 C 256.696 361.336,277.422 361.412,277.800 360.800 C 277.936 360.580,278.937 360.400,280.024 360.400 C 281.111 360.400,282.000 360.220,282.000 360.000 C 282.000 359.780,282.540 359.600,283.200 359.600 C 283.860 359.600,284.400 359.420,284.400 359.200 C 284.400 358.980,284.760 358.800,285.200 358.800 C 285.640 358.800,286.000 358.620,286.000 358.400 C 286.000 358.180,286.273 358.000,286.607 358.000 C 286.941 358.000,288.381 356.833,289.807 355.407 C 291.233 353.981,292.400 352.541,292.400 352.207 C 292.400 351.873,292.580 351.600,292.800 351.600 C 293.020 351.600,293.200 351.161,293.200 350.624 C 293.200 350.087,293.380 349.536,293.600 349.400 C 293.820 349.264,294.000 348.443,294.000 347.576 C 294.000 346.709,294.180 346.000,294.400 346.000 C 294.658 346.000,294.800 341.541,294.800 333.424 C 294.800 325.471,294.653 320.756,294.400 320.600 C 294.180 320.464,294.000 319.643,294.000 318.776 C 294.000 317.909,293.820 317.200,293.600 317.200 C 293.380 317.200,293.200 316.660,293.200 316.000 C 293.200 315.340,293.020 314.800,292.800 314.800 C 292.580 314.800,292.400 314.527,292.400 314.193 C 292.400 313.401,287.399 308.400,286.607 308.400 C 286.273 308.400,286.000 308.220,286.000 308.000 C 286.000 307.780,285.640 307.600,285.200 307.600 C 284.760 307.600,284.400 307.420,284.400 307.200 C 284.400 306.980,284.051 306.800,283.624 306.800 C 283.197 306.800,282.736 306.620,282.600 306.400 C 282.464 306.180,281.564 306.000,280.600 306.000 C 279.636 306.000,278.736 305.820,278.600 305.600 C 278.221 304.987,256.696 305.064,256.080 305.680 M301.650 305.740 C 301.317 306.141,301.222 313.637,301.297 333.644 L 301.400 361.000 304.900 361.116 L 308.400 361.231 308.400 348.416 L 308.400 335.600 319.600 335.600 L 330.800 335.600 330.800 332.800 L 330.800 330.000 319.600 330.000 L 308.400 330.000 308.400 320.800 L 308.400 311.600 321.217 311.600 L 334.034 311.600 333.917 308.500 L 333.800 305.400 317.953 305.295 C 304.915 305.209,302.025 305.288,301.650 305.740 M235.800 312.000 C 235.936 312.220,236.667 312.400,237.424 312.400 C 238.181 312.400,238.800 312.580,238.800 312.800 C 238.800 313.020,239.094 313.200,239.453 313.200 C 240.263 313.200,241.999 315.161,242.000 316.076 C 242.000 316.448,242.180 316.864,242.400 317.000 C 242.620 317.136,242.800 318.049,242.800 319.029 C 242.800 320.009,243.020 321.164,243.290 321.595 C 243.677 322.215,243.677 322.483,243.290 322.870 C 243.020 323.140,242.800 324.314,242.800 325.480 C 242.800 326.646,242.620 327.600,242.400 327.600 C 242.180 327.600,242.000 327.876,242.000 328.213 C 242.000 329.099,239.368 331.600,238.437 331.600 C 238.003 331.600,237.536 331.780,237.400 332.000 C 237.250 332.243,234.329 332.400,229.976 332.400 L 222.800 332.400 222.800 322.000 L 222.800 311.600 229.176 311.600 C 232.996 311.600,235.652 311.760,235.800 312.000 M277.000 312.000 C 277.136 312.220,277.957 312.400,278.824 312.400 C 279.691 312.400,280.400 312.580,280.400 312.800 C 280.400 313.020,280.760 313.200,281.200 313.200 C 281.640 313.200,282.000 313.380,282.000 313.600 C 282.000 313.820,282.278 314.000,282.618 314.000 C 283.950 314.000,286.800 318.235,286.800 320.214 C 286.800 320.730,286.980 321.264,287.200 321.400 C 287.452 321.556,287.600 325.930,287.600 333.200 C 287.600 340.470,287.452 344.844,287.200 345.000 C 286.980 345.136,286.800 345.771,286.800 346.411 C 286.800 348.455,284.045 352.400,282.618 352.400 C 282.278 352.400,282.000 352.580,282.000 352.800 C 282.000 353.020,281.640 353.200,281.200 353.200 C 280.760 353.200,280.400 353.380,280.400 353.600 C 280.400 353.820,279.781 354.000,279.024 354.000 C 278.267 354.000,277.536 354.180,277.400 354.400 C 277.250 354.643,274.329 354.800,269.976 354.800 L 262.800 354.800 262.800 333.200 L 262.800 311.600 269.776 311.600 C 273.996 311.600,276.850 311.758,277.000 312.000 M177.200 338.400 C 177.200 347.420,177.335 354.800,177.500 354.800 C 177.665 354.800,177.807 355.385,177.816 356.100 C 177.825 356.815,177.870 360.955,177.916 365.300 L 178.000 373.200 181.600 373.200 L 185.200 373.200 185.200 371.224 C 185.200 370.137,185.020 369.136,184.800 369.000 C 184.391 368.747,184.212 358.800,184.617 358.800 C 184.736 358.800,185.220 359.160,185.692 359.600 C 186.164 360.040,186.956 360.400,187.452 360.400 C 187.947 360.400,188.464 360.580,188.600 360.800 C 188.736 361.021,190.530 361.200,192.600 361.200 C 194.670 361.200,196.464 361.021,196.600 360.800 C 196.736 360.580,197.161 360.400,197.544 360.400 C 198.419 360.400,200.393 359.501,200.397 359.100 C 200.407 358.168,201.959 358.909,202.073 359.900 C 202.199 360.991,202.225 361.000,205.200 361.000 L 208.200 361.000 208.304 341.500 L 208.408 322.000 205.204 322.000 L 202.000 322.000 202.000 336.211 L 202.000 350.421 200.211 352.211 C 199.226 353.195,198.146 354.000,197.811 354.000 C 197.475 354.000,197.200 354.180,197.200 354.400 C 197.200 354.620,196.671 354.800,196.024 354.800 C 195.377 354.800,194.736 354.980,194.600 355.200 C 194.464 355.420,193.553 355.600,192.576 355.600 C 191.599 355.600,190.800 355.420,190.800 355.200 C 190.800 354.980,190.260 354.800,189.600 354.800 C 188.940 354.800,188.400 354.620,188.400 354.400 C 188.400 354.180,188.122 354.000,187.782 354.000 C 186.993 354.000,185.200 352.223,185.200 351.442 C 185.200 351.115,185.020 350.736,184.800 350.600 C 184.546 350.443,184.400 345.196,184.400 336.176 L 184.400 322.000 180.800 322.000 L 177.200 322.000 177.200 338.400 M64.400 342.000 L 64.400 361.200 67.200 361.200 L 70.000 361.200 70.000 353.900 L 70.000 346.600 74.300 346.536 C 79.367 346.460,82.800 346.067,82.800 345.561 C 82.800 345.363,83.075 345.200,83.411 345.200 C 84.204 345.200,87.600 341.804,87.600 341.011 C 87.600 340.675,87.780 340.400,88.000 340.400 C 88.220 340.400,88.400 339.691,88.400 338.824 C 88.400 337.957,88.580 337.136,88.800 337.000 C 89.020 336.864,89.200 335.784,89.200 334.600 C 89.200 333.416,89.020 332.336,88.800 332.200 C 88.580 332.064,88.400 331.333,88.400 330.576 C 88.400 329.819,88.220 329.200,88.000 329.200 C 87.780 329.200,87.600 328.840,87.600 328.400 C 87.600 327.960,87.464 327.600,87.298 327.600 C 87.131 327.600,86.756 327.060,86.464 326.400 C 86.172 325.740,85.628 325.200,85.255 325.200 C 84.882 325.200,84.317 324.840,84.000 324.400 C 83.661 323.930,82.965 323.600,82.312 323.600 C 81.700 323.600,81.200 323.420,81.200 323.200 C 81.200 322.946,78.133 322.800,72.800 322.800 L 64.400 322.800 64.400 342.000 M79.305 328.900 C 80.899 329.791,82.000 330.922,82.000 331.670 C 82.000 332.071,82.180 332.400,82.400 332.400 C 82.622 332.400,82.800 333.467,82.800 334.800 C 82.800 336.133,82.622 337.200,82.400 337.200 C 82.180 337.200,82.000 337.478,82.000 337.818 C 82.000 338.875,80.135 340.400,78.842 340.400 C 78.185 340.400,77.536 340.580,77.400 340.800 C 77.264 341.020,75.543 341.200,73.576 341.200 L 70.000 341.200 70.000 334.800 L 70.000 328.400 74.205 328.400 C 76.826 328.400,78.748 328.588,79.305 328.900 M89.815 332.776 C 89.487 333.307,90.030 336.400,90.451 336.400 C 90.643 336.400,90.800 336.839,90.800 337.376 C 90.800 337.913,90.980 338.464,91.200 338.600 C 91.420 338.736,91.600 339.197,91.600 339.624 C 91.600 340.051,91.780 340.400,92.000 340.400 C 92.220 340.400,92.400 340.760,92.400 341.200 C 92.400 341.640,92.580 342.000,92.800 342.000 C 93.020 342.000,93.200 342.540,93.200 343.200 C 93.200 343.860,93.380 344.400,93.600 344.400 C 93.820 344.400,94.000 344.760,94.000 345.200 C 94.000 345.640,94.180 346.000,94.400 346.000 C 94.620 346.000,94.800 346.540,94.800 347.200 C 94.800 347.860,94.980 348.400,95.200 348.400 C 95.420 348.400,95.600 348.760,95.600 349.200 C 95.600 349.640,95.780 350.000,96.000 350.000 C 96.220 350.000,96.400 350.540,96.400 351.200 C 96.400 351.860,96.580 352.400,96.800 352.400 C 97.020 352.400,97.200 352.749,97.200 353.176 C 97.200 353.603,97.380 354.064,97.600 354.200 C 97.820 354.336,98.000 355.247,98.000 356.224 C 98.000 357.201,97.820 358.000,97.600 358.000 C 97.380 358.000,97.200 358.276,97.200 358.613 C 97.200 359.409,94.609 362.000,93.813 362.000 C 93.476 362.000,93.200 362.180,93.200 362.400 C 93.200 362.620,92.917 362.800,92.571 362.800 C 92.226 362.800,91.686 363.057,91.371 363.371 C 90.722 364.021,90.593 366.000,91.200 366.000 C 91.420 366.000,91.600 366.463,91.600 367.029 C 91.600 367.594,91.857 368.314,92.171 368.629 C 92.827 369.284,94.000 369.394,94.000 368.800 C 94.000 368.580,94.234 368.400,94.520 368.400 C 95.256 368.400,97.193 367.459,97.197 367.100 C 97.199 366.935,97.452 366.800,97.760 366.800 C 98.384 366.800,101.200 364.134,101.200 363.543 C 101.200 363.336,101.560 362.780,102.000 362.308 C 102.440 361.836,102.800 361.213,102.800 360.925 C 102.800 360.636,102.980 360.400,103.200 360.400 C 103.420 360.400,103.600 360.040,103.600 359.600 C 103.600 359.160,103.780 358.800,104.000 358.800 C 104.220 358.800,104.400 358.451,104.400 358.024 C 104.400 357.597,104.580 357.136,104.800 357.000 C 105.020 356.864,105.200 356.313,105.200 355.776 C 105.200 355.239,105.380 354.800,105.600 354.800 C 105.820 354.800,106.000 354.440,106.000 354.000 C 106.000 353.560,106.180 353.200,106.400 353.200 C 106.620 353.200,106.800 352.660,106.800 352.000 C 106.800 351.340,106.980 350.800,107.200 350.800 C 107.420 350.800,107.600 350.451,107.600 350.024 C 107.600 349.597,107.780 349.136,108.000 349.000 C 108.220 348.864,108.400 348.313,108.400 347.776 C 108.400 347.239,108.580 346.800,108.800 346.800 C 109.020 346.800,109.200 346.260,109.200 345.600 C 109.200 344.940,109.380 344.400,109.600 344.400 C 109.820 344.400,110.000 344.040,110.000 343.600 C 110.000 343.160,110.180 342.800,110.400 342.800 C 110.620 342.800,110.800 342.260,110.800 341.600 C 110.800 340.940,110.980 340.400,111.200 340.400 C 111.420 340.400,111.600 339.961,111.600 339.424 C 111.600 338.887,111.780 338.336,112.000 338.200 C 112.220 338.064,112.400 337.603,112.400 337.176 C 112.400 336.749,112.580 336.400,112.800 336.400 C 113.020 336.400,113.200 335.500,113.200 334.400 L 113.200 332.400 110.571 332.400 C 107.766 332.400,106.800 332.899,106.800 334.348 C 106.800 334.791,106.620 335.264,106.400 335.400 C 106.180 335.536,106.000 336.076,106.000 336.600 C 106.000 337.124,105.820 337.664,105.600 337.800 C 105.380 337.936,105.200 338.399,105.200 338.829 C 105.200 339.259,105.020 339.968,104.800 340.405 C 104.580 340.842,104.220 341.558,104.000 341.995 C 103.780 342.432,103.600 343.141,103.600 343.571 C 103.600 344.001,103.420 344.464,103.200 344.600 C 102.980 344.736,102.800 345.176,102.800 345.578 C 102.800 346.543,101.793 348.460,101.461 348.127 C 101.317 347.984,101.200 347.447,101.200 346.933 C 101.200 346.420,101.020 346.000,100.800 346.000 C 100.580 346.000,100.400 345.460,100.400 344.800 C 100.400 344.140,100.220 343.600,100.000 343.600 C 99.780 343.600,99.600 343.060,99.600 342.400 C 99.600 341.740,99.420 341.200,99.200 341.200 C 98.980 341.200,98.800 340.840,98.800 340.400 C 98.800 339.960,98.620 339.600,98.400 339.600 C 98.180 339.600,98.000 339.060,98.000 338.400 C 98.000 337.740,97.820 337.200,97.600 337.200 C 97.380 337.200,97.200 336.660,97.200 336.000 C 97.200 335.340,97.020 334.800,96.800 334.800 C 96.580 334.800,96.400 334.517,96.400 334.171 C 96.400 332.647,90.648 331.428,89.815 332.776 " stroke="none" fill="#323435" fill-rule="evenodd"></path><path id="path1" d="M258.200 57.570 C 254.549 57.874,249.233 59.149,247.171 60.215 C 246.549 60.537,245.773 60.800,245.447 60.800 C 244.766 60.800,237.786 64.135,236.834 64.915 C 236.485 65.201,235.721 65.674,235.135 65.966 C 232.612 67.225,224.000 74.514,224.000 75.390 C 224.000 75.626,223.280 76.440,222.400 77.200 C 221.520 77.960,220.800 78.723,220.800 78.895 C 220.800 79.440,216.553 84.953,215.241 86.111 C 214.549 86.722,213.242 88.759,212.336 90.638 C 211.345 92.694,210.274 94.319,209.645 94.721 C 208.066 95.730,207.627 96.455,207.613 98.076 C 207.606 98.888,207.420 99.664,207.200 99.800 C 206.574 100.187,206.724 101.192,207.700 103.174 C 208.527 104.852,208.620 105.746,208.846 114.200 C 209.159 125.956,209.749 128.851,213.738 138.200 C 218.146 148.531,230.654 161.388,240.400 165.608 C 241.610 166.132,242.870 166.771,243.200 167.029 C 244.056 167.696,250.006 169.600,251.235 169.600 C 251.802 169.600,252.395 169.729,252.553 169.886 C 253.784 171.117,267.306 172.033,273.200 171.285 C 278.552 170.605,286.705 168.318,288.113 167.100 C 288.558 166.715,289.272 166.400,289.699 166.400 C 291.146 166.400,297.759 162.451,301.800 159.174 C 306.528 155.339,312.000 149.329,312.000 147.971 C 312.000 147.754,313.185 146.409,314.633 144.983 C 317.271 142.383,318.403 140.661,320.968 135.351 C 321.725 133.784,322.762 132.157,323.272 131.736 C 325.411 129.971,325.605 128.772,324.200 126.000 C 323.226 124.078,323.200 123.804,323.200 115.473 C 323.200 110.769,323.039 106.398,322.843 105.760 C 322.647 105.122,322.268 103.520,322.002 102.200 C 320.244 93.489,316.136 84.607,314.583 86.160 C 313.765 86.978,313.061 87.109,308.200 87.352 C 298.657 87.828,295.245 90.041,293.037 97.187 C 292.110 100.188,291.482 154.400,292.375 154.400 C 294.272 154.400,305.862 147.601,308.956 144.673 C 310.954 142.781,313.600 142.903,313.600 144.886 C 313.600 146.667,304.720 154.599,298.833 158.076 C 271.949 173.955,237.640 168.057,218.612 144.285 C 216.399 141.520,216.193 142.441,223.006 124.600 C 224.790 119.928,228.178 110.867,230.409 104.800 C 231.016 103.150,232.777 98.470,234.323 94.400 C 235.869 90.330,237.782 85.290,238.574 83.200 C 241.376 75.804,237.476 76.637,270.400 76.400 L 298.200 76.200 296.000 75.149 C 280.965 67.964,258.593 66.724,244.009 72.267 C 242.574 72.812,240.590 73.534,239.600 73.870 C 235.695 75.196,229.318 78.937,224.837 82.532 C 221.612 85.119,219.988 85.168,219.679 82.686 C 219.333 79.906,233.032 69.494,242.091 65.652 C 264.504 56.149,294.637 61.568,309.548 77.785 C 311.835 80.272,311.531 79.603,309.003 76.584 C 306.655 73.779,300.942 68.480,299.328 67.609 C 298.708 67.274,297.570 66.522,296.800 65.938 C 295.212 64.734,287.536 60.807,286.730 60.786 C 286.438 60.779,285.480 60.425,284.600 60.000 C 283.720 59.575,282.618 59.221,282.152 59.214 C 281.686 59.206,280.156 58.829,278.752 58.376 C 275.865 57.444,264.891 57.014,258.200 57.570 M96.400 181.200 L 96.400 277.200 110.400 277.200 L 124.400 277.200 124.400 204.400 C 124.400 156.133,124.535 131.600,124.800 131.600 C 125.020 131.600,125.200 132.140,125.200 132.800 C 125.200 133.460,125.380 134.000,125.600 134.000 C 125.820 134.000,126.000 134.355,126.000 134.788 C 126.000 135.221,126.360 136.217,126.800 137.000 C 127.240 137.783,127.600 138.869,127.600 139.412 C 127.600 139.955,127.780 140.400,128.000 140.400 C 128.220 140.400,128.400 140.850,128.400 141.400 C 128.400 141.950,128.541 142.400,128.713 142.400 C 128.885 142.400,129.066 142.887,129.115 143.482 C 129.164 144.078,129.384 144.744,129.602 144.962 C 129.821 145.181,130.000 145.648,130.000 146.000 C 130.000 146.831,130.912 148.793,131.300 148.797 C 131.465 148.799,131.600 149.239,131.600 149.776 C 131.600 150.313,131.780 150.864,132.000 151.000 C 132.220 151.136,132.400 151.676,132.400 152.200 C 132.400 152.724,132.580 153.264,132.800 153.400 C 133.020 153.536,133.200 154.087,133.200 154.624 C 133.200 155.161,133.380 155.600,133.600 155.600 C 133.820 155.600,134.000 155.960,134.000 156.400 C 134.000 156.840,134.180 157.200,134.400 157.200 C 134.620 157.200,134.800 157.740,134.800 158.400 C 134.800 159.060,134.980 159.600,135.200 159.600 C 135.420 159.600,135.600 159.955,135.600 160.388 C 135.600 160.821,135.960 161.817,136.400 162.600 C 136.840 163.383,137.200 164.368,137.200 164.789 C 137.200 165.209,137.380 165.664,137.600 165.800 C 137.820 165.936,138.000 166.397,138.000 166.824 C 138.000 167.251,138.180 167.600,138.400 167.600 C 138.620 167.600,138.800 168.140,138.800 168.800 C 138.800 169.460,138.980 170.000,139.200 170.000 C 139.420 170.000,139.600 170.272,139.600 170.605 C 139.600 170.938,139.759 171.523,139.953 171.905 C 140.148 172.287,140.529 173.140,140.800 173.800 C 141.071 174.460,141.452 175.313,141.647 175.695 C 141.841 176.077,142.000 176.752,142.000 177.195 C 142.000 177.638,142.180 178.000,142.400 178.000 C 142.620 178.000,142.800 178.540,142.800 179.200 C 142.800 179.860,142.980 180.400,143.200 180.400 C 143.420 180.400,143.600 180.760,143.600 181.200 C 143.600 181.640,143.780 182.000,144.000 182.000 C 144.220 182.000,144.400 182.504,144.400 183.120 C 144.400 183.736,144.548 184.411,144.728 184.620 C 144.908 184.829,145.481 186.350,146.000 188.000 C 146.519 189.650,147.092 191.171,147.272 191.380 C 147.452 191.589,147.600 192.163,147.600 192.656 C 147.600 193.149,147.780 193.664,148.000 193.800 C 148.220 193.936,148.400 194.397,148.400 194.824 C 148.400 195.251,148.580 195.600,148.800 195.600 C 149.020 195.600,149.200 195.962,149.200 196.405 C 149.200 196.848,149.357 197.523,149.550 197.905 C 151.108 200.998,151.600 202.176,151.600 202.814 C 151.600 203.220,151.780 203.664,152.000 203.800 C 152.220 203.936,152.400 204.487,152.400 205.024 C 152.400 205.561,152.580 206.000,152.800 206.000 C 153.020 206.000,153.200 206.360,153.200 206.800 C 153.200 207.240,153.380 207.600,153.600 207.600 C 153.820 207.600,154.000 207.962,154.000 208.405 C 154.000 208.848,154.180 209.568,154.400 210.005 C 154.620 210.442,154.980 211.158,155.200 211.595 C 155.420 212.032,155.600 212.752,155.600 213.195 C 155.600 213.638,155.780 214.000,156.000 214.000 C 156.220 214.000,156.400 214.362,156.400 214.805 C 156.400 215.248,156.580 215.968,156.800 216.405 C 157.020 216.842,157.380 217.558,157.600 217.995 C 157.820 218.432,158.000 219.152,158.000 219.595 C 158.000 220.038,158.180 220.400,158.400 220.400 C 158.620 220.400,158.800 220.749,158.800 221.176 C 158.800 221.603,158.980 222.064,159.200 222.200 C 159.420 222.336,159.600 222.887,159.600 223.424 C 159.600 223.961,159.780 224.400,160.000 224.400 C 160.220 224.400,160.400 224.940,160.400 225.600 C 160.400 226.260,160.580 226.800,160.800 226.800 C 161.020 226.800,161.200 227.239,161.200 227.776 C 161.200 228.313,161.380 228.864,161.600 229.000 C 161.820 229.136,162.000 229.697,162.000 230.247 C 162.000 230.812,162.174 231.140,162.400 231.000 C 162.638 230.853,162.800 231.321,162.800 232.153 C 162.800 232.923,162.980 233.664,163.200 233.800 C 163.420 233.936,163.600 234.407,163.600 234.847 C 163.600 235.287,163.780 235.536,164.000 235.400 C 164.227 235.260,164.400 235.598,164.400 236.182 C 164.400 236.748,164.580 237.568,164.800 238.005 C 165.020 238.442,165.380 239.158,165.600 239.595 C 165.820 240.032,166.000 240.752,166.000 241.195 C 166.000 241.638,166.180 242.000,166.400 242.000 C 166.620 242.000,166.800 242.349,166.800 242.776 C 166.800 243.203,166.980 243.664,167.200 243.800 C 167.420 243.936,167.600 244.487,167.600 245.024 C 167.600 245.561,167.780 246.000,168.000 246.000 C 168.220 246.000,168.400 246.349,168.400 246.776 C 168.400 247.203,168.580 247.664,168.800 247.800 C 169.020 247.936,169.200 248.487,169.200 249.024 C 169.200 249.561,169.380 250.000,169.600 250.000 C 169.820 250.000,170.000 250.439,170.000 250.976 C 170.000 251.513,170.180 252.064,170.400 252.200 C 170.620 252.336,170.800 252.797,170.800 253.224 C 170.800 253.651,170.980 254.000,171.200 254.000 C 171.420 254.000,171.600 254.540,171.600 255.200 C 171.600 255.860,171.780 256.400,172.000 256.400 C 172.220 256.400,172.400 256.839,172.400 257.376 C 172.400 257.913,172.580 258.464,172.800 258.600 C 173.020 258.736,173.200 259.197,173.200 259.624 C 173.200 260.051,173.380 260.400,173.600 260.400 C 173.820 260.400,174.000 260.760,174.000 261.200 C 174.000 261.984,174.267 262.000,187.371 262.000 L 200.741 262.000 201.371 260.739 C 201.717 260.045,202.000 259.145,202.000 258.739 C 202.000 258.332,202.180 258.000,202.400 258.000 C 202.620 258.000,202.800 257.561,202.800 257.024 C 202.800 256.487,202.980 255.936,203.200 255.800 C 203.420 255.664,203.600 255.203,203.600 254.776 C 203.600 254.349,203.780 254.000,204.000 254.000 C 204.220 254.000,204.400 253.561,204.400 253.024 C 204.400 252.487,204.580 251.936,204.800 251.800 C 205.020 251.664,205.200 251.203,205.200 250.776 C 205.200 250.349,205.380 250.000,205.600 250.000 C 205.820 250.000,206.000 249.561,206.000 249.024 C 206.000 248.487,206.180 247.936,206.400 247.800 C 206.620 247.664,206.800 247.220,206.800 246.814 C 206.800 246.408,207.186 245.294,207.657 244.338 C 208.742 242.137,208.916 241.671,210.060 237.902 C 210.577 236.198,211.135 234.803,211.300 234.802 C 211.465 234.801,211.600 234.348,211.600 233.795 C 211.600 233.242,211.780 232.432,212.000 231.995 C 212.220 231.558,212.580 230.842,212.800 230.405 C 213.020 229.968,213.200 229.338,213.200 229.005 C 213.200 228.672,213.380 228.400,213.600 228.400 C 213.820 228.400,214.000 227.860,214.000 227.200 C 214.000 226.540,214.180 226.000,214.400 226.000 C 214.620 226.000,214.800 225.651,214.800 225.224 C 214.800 224.797,214.980 224.336,215.200 224.200 C 215.420 224.064,215.600 223.513,215.600 222.976 C 215.600 222.439,215.780 222.000,216.000 222.000 C 216.220 222.000,216.400 221.651,216.400 221.224 C 216.400 220.797,216.580 220.336,216.800 220.200 C 217.020 220.064,217.200 219.513,217.200 218.976 C 217.200 218.439,217.380 218.000,217.600 218.000 C 217.820 218.000,218.000 217.638,218.000 217.195 C 218.000 216.752,218.208 215.987,218.462 215.495 C 219.458 213.569,219.600 213.183,219.600 212.405 C 219.600 211.962,219.780 211.600,220.000 211.600 C 220.220 211.600,220.400 211.161,220.400 210.624 C 220.400 210.087,220.580 209.536,220.800 209.400 C 221.020 209.264,221.200 208.803,221.200 208.376 C 221.200 207.949,221.380 207.600,221.600 207.600 C 221.820 207.600,222.000 207.251,222.000 206.824 C 222.000 206.397,222.180 205.936,222.400 205.800 C 222.620 205.664,222.800 205.113,222.800 204.576 C 222.800 204.039,222.980 203.600,223.200 203.600 C 223.420 203.600,223.600 203.161,223.600 202.624 C 223.600 202.087,223.780 201.536,224.000 201.400 C 224.220 201.264,224.400 200.613,224.400 199.953 C 224.400 199.255,224.567 198.856,224.800 199.000 C 225.026 199.140,225.200 198.812,225.200 198.247 C 225.200 197.697,225.380 197.136,225.600 197.000 C 225.820 196.864,226.000 196.223,226.000 195.576 C 226.000 194.929,226.180 194.400,226.400 194.400 C 226.620 194.400,226.800 193.950,226.800 193.400 C 226.800 192.850,226.980 192.400,227.200 192.400 C 227.420 192.400,227.600 191.860,227.600 191.200 C 227.600 190.540,227.780 190.000,228.000 190.000 C 228.220 190.000,228.400 189.651,228.400 189.224 C 228.400 188.797,228.580 188.336,228.800 188.200 C 229.020 188.064,229.200 187.601,229.200 187.171 C 229.200 186.741,229.380 186.032,229.600 185.595 C 229.820 185.158,230.180 184.442,230.400 184.005 C 230.620 183.568,230.800 182.938,230.800 182.605 C 230.800 182.272,230.980 182.000,231.200 182.000 C 231.420 182.000,231.600 181.177,231.600 180.171 C 231.600 178.284,230.954 177.200,229.829 177.200 C 229.483 177.200,229.199 177.065,229.197 176.900 C 229.195 176.735,228.790 176.402,228.297 176.160 C 226.605 175.329,223.800 173.800,223.600 173.599 C 223.490 173.489,222.905 173.144,222.300 172.832 C 221.695 172.520,221.200 172.115,221.200 171.932 C 221.200 171.750,220.840 171.600,220.400 171.600 C 219.960 171.600,219.600 171.450,219.600 171.268 C 219.600 171.085,219.105 170.680,218.500 170.368 C 217.895 170.055,216.950 169.348,216.400 168.796 C 211.884 164.262,209.503 163.361,209.276 166.100 C 209.208 166.925,208.983 167.600,208.776 167.600 C 208.569 167.600,208.400 167.949,208.400 168.376 C 208.400 168.803,208.220 169.264,208.000 169.400 C 207.780 169.536,207.600 170.087,207.600 170.624 C 207.600 171.161,207.420 171.600,207.200 171.600 C 206.980 171.600,206.800 171.960,206.800 172.400 C 206.800 172.840,206.620 173.200,206.400 173.200 C 206.180 173.200,206.000 173.740,206.000 174.400 C 206.000 175.060,205.820 175.600,205.600 175.600 C 205.380 175.600,205.200 176.039,205.200 176.576 C 205.200 177.113,205.020 177.664,204.800 177.800 C 204.580 177.936,204.400 178.397,204.400 178.824 C 204.400 179.251,204.220 179.600,204.000 179.600 C 203.780 179.600,203.600 179.949,203.600 180.376 C 203.600 180.803,203.420 181.264,203.200 181.400 C 202.980 181.536,202.800 182.076,202.800 182.600 C 202.800 183.124,202.620 183.664,202.400 183.800 C 202.180 183.936,202.000 184.487,202.000 185.024 C 202.000 185.561,201.820 186.000,201.600 186.000 C 201.380 186.000,201.200 186.272,201.200 186.605 C 201.200 187.193,201.033 187.618,200.062 189.495 C 199.808 189.987,199.600 190.662,199.600 190.995 C 199.600 191.328,199.420 191.600,199.200 191.600 C 198.980 191.600,198.800 191.962,198.800 192.405 C 198.800 192.848,198.643 193.523,198.450 193.905 C 196.949 196.884,196.400 198.154,196.400 198.643 C 196.400 198.955,196.241 199.523,196.047 199.905 C 195.852 200.287,195.471 201.140,195.200 201.800 C 194.929 202.460,194.548 203.313,194.353 203.695 C 194.159 204.077,194.000 204.741,194.000 205.171 C 194.000 205.601,193.820 206.064,193.600 206.200 C 193.380 206.336,193.200 206.966,193.200 207.600 C 193.200 208.234,193.020 208.864,192.800 209.000 C 192.580 209.136,192.400 209.597,192.400 210.024 C 192.400 210.451,192.220 210.800,192.000 210.800 C 191.780 210.800,191.600 211.239,191.600 211.776 C 191.600 212.313,191.420 212.864,191.200 213.000 C 190.980 213.136,190.800 213.676,190.800 214.200 C 190.800 214.724,190.620 215.264,190.400 215.400 C 190.180 215.536,190.000 215.997,190.000 216.424 C 190.000 216.851,189.820 217.200,189.600 217.200 C 189.380 217.200,189.200 217.639,189.200 218.176 C 189.200 218.713,189.020 219.264,188.800 219.400 C 188.580 219.536,188.400 219.977,188.400 220.381 C 188.400 221.122,187.480 221.747,187.039 221.306 C 186.908 221.174,186.800 220.737,186.800 220.333 C 186.800 219.930,186.620 219.600,186.400 219.600 C 186.180 219.600,186.000 219.060,186.000 218.400 C 186.000 217.740,185.820 217.200,185.600 217.200 C 185.380 217.200,185.200 216.840,185.200 216.400 C 185.200 215.960,185.020 215.600,184.800 215.600 C 184.580 215.600,184.400 215.060,184.400 214.400 C 184.400 213.740,184.220 213.200,184.000 213.200 C 183.780 213.200,183.600 212.761,183.600 212.224 C 183.600 211.687,183.420 211.136,183.200 211.000 C 182.980 210.864,182.800 210.403,182.800 209.976 C 182.800 209.549,182.620 209.200,182.400 209.200 C 182.180 209.200,182.000 208.761,182.000 208.224 C 182.000 207.687,181.820 207.136,181.600 207.000 C 181.380 206.864,181.200 206.403,181.200 205.976 C 181.200 205.549,181.020 205.200,180.800 205.200 C 180.580 205.200,180.400 204.660,180.400 204.000 C 180.400 203.340,180.220 202.800,180.000 202.800 C 179.780 202.800,179.600 202.440,179.600 202.000 C 179.600 201.560,179.420 201.200,179.200 201.200 C 178.980 201.200,178.800 200.761,178.800 200.224 C 178.800 199.687,178.620 199.136,178.400 199.000 C 178.180 198.864,178.000 198.311,178.000 197.771 C 178.000 196.825,177.872 196.459,176.862 194.505 C 176.608 194.013,176.400 193.259,176.400 192.829 C 176.400 192.399,176.220 191.936,176.000 191.800 C 175.780 191.664,175.600 191.203,175.600 190.776 C 175.600 190.349,175.420 190.000,175.200 190.000 C 174.980 190.000,174.800 189.645,174.800 189.212 C 174.800 188.779,174.440 187.783,174.000 187.000 C 173.560 186.217,173.200 185.232,173.200 184.811 C 173.200 184.391,173.020 183.936,172.800 183.800 C 172.580 183.664,172.400 183.203,172.400 182.776 C 172.400 182.349,172.220 182.000,172.000 182.000 C 171.780 182.000,171.600 181.638,171.600 181.195 C 171.600 180.752,171.420 180.032,171.200 179.595 C 170.980 179.158,170.620 178.442,170.400 178.005 C 170.180 177.568,170.000 176.848,170.000 176.405 C 170.000 175.962,169.820 175.600,169.600 175.600 C 169.380 175.600,169.200 175.251,169.200 174.824 C 169.200 174.397,169.020 173.936,168.800 173.800 C 168.580 173.664,168.400 173.113,168.400 172.576 C 168.400 172.039,168.220 171.600,168.000 171.600 C 167.780 171.600,167.600 171.328,167.600 170.995 C 167.600 170.662,167.392 169.987,167.138 169.495 C 166.144 167.574,166.000 167.184,166.000 166.429 C 166.000 165.999,165.820 165.536,165.600 165.400 C 165.380 165.264,165.200 164.803,165.200 164.376 C 165.200 163.949,165.020 163.600,164.800 163.600 C 164.580 163.600,164.400 163.251,164.400 162.824 C 164.400 162.397,164.220 161.936,164.000 161.800 C 163.780 161.664,163.600 161.124,163.600 160.600 C 163.600 160.076,163.420 159.536,163.200 159.400 C 162.980 159.264,162.800 158.713,162.800 158.176 C 162.800 157.639,162.620 157.200,162.400 157.200 C 162.180 157.200,162.000 156.671,162.000 156.024 C 162.000 155.377,161.820 154.736,161.600 154.600 C 161.380 154.464,161.200 153.993,161.200 153.553 C 161.200 153.113,161.020 152.864,160.800 153.000 C 160.562 153.147,160.400 152.679,160.400 151.847 C 160.400 151.077,160.220 150.336,160.000 150.200 C 159.780 150.064,159.600 149.603,159.600 149.176 C 159.600 148.749,159.420 148.400,159.200 148.400 C 158.980 148.400,158.800 148.051,158.800 147.624 C 158.800 147.197,158.620 146.736,158.400 146.600 C 158.180 146.464,158.000 146.001,158.000 145.571 C 158.000 145.141,157.792 144.387,157.538 143.895 C 156.567 142.018,156.400 141.593,156.400 141.005 C 156.400 140.672,156.220 140.400,156.000 140.400 C 155.780 140.400,155.600 139.860,155.600 139.200 C 155.600 138.540,155.420 138.000,155.200 138.000 C 154.980 138.000,154.800 137.651,154.800 137.224 C 154.800 136.797,154.620 136.336,154.400 136.200 C 154.180 136.064,154.000 135.513,154.000 134.976 C 154.000 134.439,153.820 134.000,153.600 134.000 C 153.380 134.000,153.200 133.651,153.200 133.224 C 153.200 132.797,153.020 132.336,152.800 132.200 C 152.580 132.064,152.400 131.513,152.400 130.976 C 152.400 130.439,152.220 130.000,152.000 130.000 C 151.780 130.000,151.600 129.561,151.600 129.024 C 151.600 128.487,151.420 127.936,151.200 127.800 C 150.980 127.664,150.800 127.203,150.800 126.776 C 150.800 126.349,150.620 126.000,150.400 126.000 C 150.180 126.000,150.000 125.640,150.000 125.200 C 150.000 124.760,149.820 124.400,149.600 124.400 C 149.380 124.400,149.200 123.860,149.200 123.200 C 149.200 122.540,149.020 122.000,148.800 122.000 C 148.580 122.000,148.400 121.561,148.400 121.024 C 148.400 120.487,148.220 119.936,148.000 119.800 C 147.780 119.664,147.600 119.203,147.600 118.776 C 147.600 118.349,147.420 118.000,147.200 118.000 C 146.980 118.000,146.800 117.561,146.800 117.024 C 146.800 116.487,146.620 115.936,146.400 115.800 C 146.180 115.664,146.000 115.124,146.000 114.600 C 146.000 114.076,145.820 113.536,145.600 113.400 C 145.380 113.264,145.200 112.724,145.200 112.200 C 145.200 111.676,145.020 111.136,144.800 111.000 C 144.580 110.864,144.400 110.401,144.400 109.971 C 144.400 109.541,144.243 108.877,144.050 108.495 C 142.549 105.516,142.000 104.246,142.000 103.757 C 142.000 103.445,141.841 102.877,141.647 102.495 C 141.452 102.113,141.071 101.260,140.800 100.600 C 140.529 99.940,140.148 99.087,139.953 98.705 C 139.759 98.323,139.600 97.648,139.600 97.205 C 139.600 96.762,139.420 96.400,139.200 96.400 C 138.980 96.400,138.800 96.128,138.800 95.795 C 138.800 95.462,138.620 94.832,138.400 94.395 C 138.180 93.958,137.820 93.242,137.600 92.805 C 137.380 92.368,137.200 91.738,137.200 91.405 C 137.200 91.072,137.020 90.800,136.800 90.800 C 136.580 90.800,136.400 90.361,136.400 89.824 C 136.400 89.287,136.220 88.736,136.000 88.600 C 135.780 88.464,135.600 87.941,135.600 87.438 C 135.600 85.176,135.822 85.200,115.269 85.200 L 96.400 85.200 96.400 181.200 M252.965 121.200 C 252.725 121.750,251.315 125.530,249.831 129.600 C 248.348 133.670,246.619 138.350,245.989 140.000 C 243.401 146.780,240.798 154.474,240.989 154.781 C 241.541 155.675,253.158 158.175,253.433 157.459 C 253.860 156.345,253.393 120.215,252.965 121.200 " stroke="none" fill="#0574cc" fill-rule="evenodd"></path><path id="path2" d="M258.200 62.199 C 248.187 63.472,239.200 66.998,230.859 72.924 C 226.880 75.751,220.240 82.120,220.490 82.870 C 220.812 83.838,222.057 83.688,223.538 82.503 C 243.855 66.239,272.819 63.207,297.300 74.781 C 302.510 77.245,302.995 77.200,271.147 77.200 C 240.160 77.200,241.753 77.049,240.678 80.089 C 240.345 81.030,239.497 83.330,238.793 85.200 C 238.090 87.070,236.915 90.220,236.183 92.200 C 235.450 94.180,233.784 98.590,232.480 102.000 C 221.066 131.847,218.000 140.117,218.000 141.061 C 218.000 143.412,226.198 151.704,233.144 156.378 C 238.852 160.219,246.134 163.073,255.800 165.258 C 266.018 167.567,283.492 165.053,294.093 159.747 C 302.858 155.361,313.857 146.085,312.227 144.455 C 311.778 144.007,311.419 143.932,311.033 144.207 C 310.730 144.423,308.935 145.780,307.043 147.223 C 301.651 151.337,292.391 156.151,291.529 155.289 C 290.767 154.527,291.353 99.707,292.152 97.000 C 294.357 89.538,297.864 87.244,308.353 86.406 C 315.334 85.848,315.445 85.645,311.331 80.924 C 299.210 67.011,278.301 59.642,258.200 62.199 M254.720 138.115 C 254.586 160.286,254.775 158.968,251.800 158.549 C 249.178 158.180,241.124 156.035,240.541 155.551 C 239.739 154.885,239.759 154.806,242.953 145.969 C 244.578 141.476,246.387 136.450,246.974 134.800 C 247.561 133.150,248.290 131.170,248.594 130.400 C 248.898 129.630,249.980 126.660,250.998 123.800 C 254.847 112.990,254.871 113.081,254.720 138.115 " stroke="none" fill="#f9fbfb" fill-rule="evenodd"></path><path id="path3" d="M258.800 61.160 C 257.810 61.292,260.960 61.410,265.800 61.422 C 284.011 61.467,298.923 67.372,309.819 78.852 C 315.796 85.150,315.860 86.004,310.400 86.648 L 306.600 87.097 309.681 87.148 C 315.215 87.241,316.222 86.022,313.540 82.480 C 302.108 67.386,279.155 58.447,258.800 61.160 M253.400 62.064 C 238.430 64.870,215.070 80.804,220.831 84.280 C 221.764 84.843,227.600 81.239,227.600 80.100 C 227.600 79.864,226.904 80.384,224.074 82.738 C 221.844 84.592,220.000 84.617,220.000 82.793 C 220.000 80.316,233.802 69.585,240.800 66.621 C 241.790 66.202,243.376 65.521,244.325 65.108 C 245.816 64.459,248.783 63.644,255.400 62.065 C 257.455 61.574,256.016 61.574,253.400 62.064 M257.009 68.822 C 255.694 69.026,254.434 69.285,254.209 69.396 C 253.984 69.508,254.430 69.504,255.200 69.388 C 261.714 68.409,273.925 68.809,281.200 70.240 C 281.970 70.391,282.498 70.402,282.374 70.265 C 281.217 68.984,262.725 67.932,257.009 68.822 M249.005 70.322 C 245.504 71.220,246.843 71.304,250.600 70.423 C 252.360 70.010,253.260 69.681,252.600 69.691 C 251.940 69.700,250.322 69.985,249.005 70.322 M286.000 71.431 C 289.870 72.524,292.822 73.621,296.000 75.145 L 298.200 76.200 270.400 76.400 C 240.649 76.614,241.466 76.555,240.430 78.581 C 240.199 79.032,238.380 83.720,236.388 89.000 C 232.069 100.445,231.017 103.220,228.827 108.949 C 227.912 111.341,227.258 113.391,227.373 113.506 C 227.487 113.621,227.692 113.374,227.827 112.957 C 227.962 112.541,228.227 111.840,228.415 111.400 C 228.604 110.960,229.957 107.360,231.423 103.400 C 232.889 99.440,234.536 95.030,235.084 93.600 C 235.631 92.170,236.799 89.110,237.679 86.800 C 242.034 75.365,237.230 76.800,271.162 76.800 C 286.583 76.800,299.200 76.655,299.200 76.477 C 299.200 75.829,290.182 72.034,286.080 70.957 C 282.471 70.009,282.402 70.414,286.000 71.431 M243.000 72.049 C 239.961 73.214,237.977 74.111,238.121 74.254 C 238.235 74.368,240.875 73.450,245.200 71.793 C 246.047 71.468,246.284 71.261,245.800 71.269 C 245.360 71.276,244.100 71.627,243.000 72.049 M234.200 75.922 C 231.291 77.482,228.000 79.581,228.000 79.877 C 228.000 80.073,228.581 79.756,230.000 78.784 C 230.550 78.408,232.440 77.329,234.200 76.388 C 237.731 74.499,237.897 74.395,237.367 74.411 C 237.165 74.416,235.740 75.097,234.200 75.922 M300.511 88.070 C 295.463 89.763,291.799 95.335,292.060 100.920 L 292.120 102.200 292.286 101.000 C 293.464 92.484,296.217 89.266,303.585 87.797 C 305.849 87.345,305.985 87.272,304.600 87.255 C 303.720 87.244,301.880 87.610,300.511 88.070 M291.697 128.267 C 291.644 141.944,291.512 153.374,291.404 153.667 C 290.525 156.060,297.373 153.369,304.436 148.546 C 308.227 145.958,311.576 143.200,310.928 143.200 C 310.699 143.200,309.812 143.863,308.956 144.673 C 305.883 147.582,294.275 154.400,292.396 154.400 C 292.148 154.400,291.967 145.115,291.900 128.900 L 291.794 103.400 291.697 128.267 M226.277 115.877 C 225.900 116.893,225.658 117.791,225.738 117.872 C 225.819 117.952,226.200 117.193,226.585 116.185 C 226.970 115.176,227.212 114.279,227.123 114.190 C 227.035 114.101,226.654 114.860,226.277 115.877 M253.407 118.500 C 253.096 119.430,250.337 126.974,248.719 131.322 C 247.834 133.699,247.189 135.722,247.285 135.818 C 247.381 135.915,248.691 132.620,250.196 128.497 C 251.701 124.374,253.084 120.827,253.270 120.616 C 253.456 120.405,253.561 128.685,253.504 139.016 L 253.400 157.800 252.000 157.715 L 250.600 157.631 251.937 158.036 C 252.672 158.260,253.466 158.378,253.700 158.300 C 254.265 158.112,254.527 118.000,253.963 118.000 C 253.750 118.000,253.499 118.225,253.407 118.500 M224.260 121.260 C 223.654 122.817,223.229 124.162,223.315 124.248 C 223.401 124.334,223.970 123.134,224.580 121.580 C 225.190 120.026,225.615 118.682,225.525 118.592 C 225.435 118.502,224.866 119.703,224.260 121.260 M221.060 129.660 C 220.454 131.217,220.029 132.562,220.115 132.648 C 220.201 132.734,220.770 131.534,221.380 129.980 C 221.990 128.426,222.415 127.082,222.325 126.992 C 222.235 126.902,221.666 128.103,221.060 129.660 M218.640 136.040 C 218.055 137.618,217.667 139.001,217.779 139.112 C 217.890 139.223,218.061 139.064,218.160 138.757 C 218.258 138.451,218.718 137.141,219.183 135.847 C 219.648 134.553,219.955 133.422,219.866 133.333 C 219.777 133.243,219.225 134.462,218.640 136.040 M246.215 138.215 C 245.830 139.224,245.598 140.132,245.700 140.233 C 245.801 140.335,246.200 139.593,246.585 138.585 C 246.970 137.576,247.202 136.668,247.100 136.567 C 246.999 136.465,246.600 137.207,246.215 138.215 M217.165 140.436 C 216.260 144.518,230.857 157.431,241.300 161.785 C 243.887 162.864,242.936 162.147,239.741 160.610 C 230.064 155.955,217.943 145.144,217.529 140.800 C 217.407 139.523,217.375 139.491,217.165 140.436 M243.825 144.691 C 243.446 145.741,242.945 147.101,242.714 147.713 C 242.482 148.325,242.381 148.915,242.490 149.024 C 242.599 149.133,243.176 147.849,243.771 146.171 C 244.367 144.494,244.778 143.045,244.685 142.952 C 244.592 142.858,244.205 143.641,243.825 144.691 M312.311 143.823 C 312.800 144.165,313.198 144.660,313.195 144.923 C 313.185 145.967,304.922 153.771,301.400 156.063 C 299.236 157.471,295.174 159.781,294.243 160.133 C 293.826 160.290,293.593 160.526,293.724 160.657 C 295.120 162.053,313.600 147.389,313.600 144.886 C 313.600 144.268,312.496 143.235,311.811 143.213 C 311.597 143.206,311.822 143.480,312.311 143.823 M241.832 150.043 C 240.099 155.226,240.113 154.989,241.500 155.540 C 243.287 156.250,248.711 157.601,249.693 157.582 C 250.192 157.572,248.544 157.037,246.031 156.393 C 240.475 154.969,240.605 155.092,241.597 152.210 C 242.040 150.922,242.316 149.783,242.210 149.677 C 242.105 149.572,241.935 149.736,241.832 150.043 M291.000 161.597 C 290.120 162.009,289.059 162.452,288.643 162.582 C 288.226 162.712,287.984 162.917,288.104 163.037 C 288.334 163.267,292.328 161.709,292.980 161.135 C 293.606 160.583,292.733 160.787,291.000 161.597 M243.600 162.800 C 243.930 163.013,244.470 163.188,244.800 163.188 C 245.333 163.188,245.333 163.145,244.800 162.800 C 244.470 162.587,243.930 162.412,243.600 162.412 C 243.067 162.412,243.067 162.455,243.600 162.800 M246.000 163.600 C 246.330 163.813,246.870 163.988,247.200 163.988 C 247.733 163.988,247.733 163.945,247.200 163.600 C 246.870 163.387,246.330 163.212,246.000 163.212 C 245.467 163.212,245.467 163.255,246.000 163.600 M248.800 164.424 C 254.215 166.810,272.405 167.780,277.869 165.973 C 278.751 165.682,278.560 165.650,277.000 165.828 C 267.071 166.964,258.765 166.628,251.600 164.803 C 250.610 164.551,249.350 164.263,248.800 164.164 L 247.800 163.983 248.800 164.424 M282.800 164.419 C 282.250 164.603,281.170 164.937,280.400 165.162 C 279.051 165.556,279.065 165.562,280.780 165.337 C 282.768 165.075,285.868 164.048,284.600 164.071 C 284.160 164.079,283.350 164.235,282.800 164.419 " stroke="none" fill="#639dcf" fill-rule="evenodd"></path><path id="path4" d="M258.263 61.623 C 256.757 61.798,255.407 62.070,255.263 62.227 C 255.118 62.384,255.990 62.392,257.200 62.245 C 265.781 61.202,273.930 61.599,281.200 63.413 C 283.290 63.935,285.450 64.473,286.000 64.608 C 286.808 64.808,286.873 64.773,286.338 64.429 C 282.818 62.163,267.121 60.594,258.263 61.623 M249.530 63.419 C 247.622 63.933,245.282 64.691,244.330 65.106 C 243.379 65.520,241.790 66.202,240.800 66.621 C 233.802 69.585,220.000 80.316,220.000 82.793 C 220.000 84.628,221.846 84.592,224.074 82.714 C 232.186 75.872,241.987 71.565,255.000 69.125 C 258.705 68.430,274.503 68.428,277.800 69.121 C 285.142 70.666,287.201 71.205,290.600 72.469 C 294.859 74.054,299.200 76.077,299.200 76.477 C 299.200 76.655,286.583 76.800,271.162 76.800 C 239.098 76.800,241.624 76.500,240.089 80.492 C 239.643 81.651,238.559 84.490,237.679 86.800 C 236.799 89.110,235.631 92.170,235.084 93.600 C 234.536 95.030,232.889 99.440,231.423 103.400 C 229.957 107.360,228.563 111.050,228.325 111.600 C 227.788 112.843,227.488 113.621,226.478 116.400 C 226.038 117.610,224.956 120.490,224.072 122.800 C 220.921 131.039,219.282 135.423,218.763 137.000 C 218.474 137.880,218.093 138.771,217.918 138.980 C 215.099 142.345,227.830 154.874,240.000 160.712 C 245.399 163.303,254.563 166.038,256.046 165.503 C 256.351 165.393,255.880 165.176,255.000 165.021 C 248.003 163.789,238.678 160.101,233.144 156.378 C 226.198 151.704,218.000 143.412,218.000 141.061 C 218.000 140.117,221.066 131.847,232.480 102.000 C 233.784 98.590,235.450 94.180,236.183 92.200 C 236.915 90.220,238.090 87.070,238.793 85.200 C 239.497 83.330,240.345 81.030,240.678 80.089 C 241.753 77.049,240.160 77.200,271.147 77.200 C 302.995 77.200,302.510 77.245,297.300 74.781 C 272.819 63.207,243.855 66.239,223.538 82.503 C 222.057 83.688,220.812 83.838,220.490 82.870 C 220.240 82.120,226.880 75.751,230.859 72.924 C 236.947 68.599,243.821 65.372,250.800 63.565 C 253.110 62.967,254.550 62.480,254.000 62.482 C 253.450 62.484,251.439 62.906,249.530 63.419 M288.000 65.299 C 299.413 70.381,305.505 74.442,311.418 80.911 C 313.195 82.855,313.343 82.962,312.091 81.400 C 307.162 75.250,299.181 69.499,290.645 65.947 C 288.072 64.876,285.800 64.320,288.000 65.299 M313.773 85.576 C 313.568 85.775,312.860 86.015,312.200 86.109 C 311.101 86.266,311.124 86.285,312.476 86.340 C 313.288 86.373,314.071 86.208,314.216 85.973 C 314.567 85.406,314.245 85.117,313.773 85.576 M303.000 86.971 C 297.001 88.203,293.905 91.066,292.153 97.000 C 291.507 99.186,291.440 101.827,291.396 126.600 L 291.347 153.800 291.620 126.600 C 291.854 103.264,291.985 99.093,292.539 97.242 C 294.669 90.127,297.652 87.947,306.585 86.981 C 310.691 86.536,310.804 86.502,308.200 86.491 C 306.660 86.484,304.320 86.700,303.000 86.971 M253.308 117.670 C 253.056 118.182,252.016 120.940,250.998 123.800 C 249.980 126.660,248.900 129.630,248.600 130.400 C 247.345 133.612,243.675 143.876,243.451 144.800 C 242.882 147.145,244.873 142.142,247.989 133.400 C 248.616 131.640,249.702 128.670,250.402 126.800 C 251.102 124.930,252.076 122.241,252.566 120.824 C 254.304 115.805,254.385 116.608,254.231 137.224 C 254.148 148.339,254.236 156.271,254.438 155.953 C 255.039 155.003,254.892 118.279,254.284 117.447 C 253.800 116.786,253.738 116.800,253.308 117.670 M309.564 144.731 C 304.557 149.115,292.329 155.896,291.517 154.739 C 291.214 154.307,291.174 154.319,291.314 154.800 C 291.831 156.578,301.689 151.611,308.479 146.153 C 311.372 143.827,311.661 143.709,312.371 144.565 C 313.235 145.606,305.674 152.825,299.752 156.614 C 289.501 163.171,279.796 165.800,265.839 165.800 C 260.800 165.800,257.380 165.930,258.239 166.088 C 264.326 167.213,276.749 166.228,284.600 163.999 C 285.480 163.749,286.608 163.445,287.106 163.324 C 287.604 163.203,288.110 162.946,288.230 162.752 C 288.349 162.559,288.699 162.400,289.006 162.400 C 290.103 162.400,297.378 158.681,301.400 156.063 C 305.246 153.560,313.287 145.853,313.102 144.848 C 312.796 143.188,311.379 143.142,309.564 144.731 M242.246 147.846 C 241.892 148.885,241.688 149.821,241.792 149.925 C 241.896 150.029,242.092 149.774,242.228 149.357 C 242.364 148.941,242.662 148.099,242.891 147.487 C 243.120 146.875,243.214 146.280,243.099 146.165 C 242.984 146.051,242.600 146.807,242.246 147.846 M240.555 152.574 C 239.937 154.537,239.921 154.892,240.429 155.400 C 241.056 156.028,249.063 158.194,252.000 158.530 L 253.800 158.736 252.200 158.199 C 251.320 157.903,250.192 157.648,249.693 157.631 C 248.648 157.595,243.129 156.187,241.500 155.540 C 240.214 155.029,240.208 154.993,241.029 152.576 C 241.375 151.558,241.569 150.635,241.460 150.527 C 241.352 150.418,240.945 151.340,240.555 152.574 " stroke="none" fill="#86c2ee" fill-rule="evenodd"></path></g></svg>